<svg id="Layer_3" enable-background="new 0 0 64 64" height="512" viewBox="0 0 64 64" width="512" xmlns="http://www.w3.org/2000/svg"><path d="m60 36.184v-21.184c0-7.72-6.28-14-14-14h-5-26c-1.654 0-3 1.346-3 3v2h2v-2c0-.551.448-1 1-1h11v3.277c-.595.347-1 .985-1 1.723 0 1.105.895 2 2 2s2-.895 2-2c0-.738-.405-1.376-1-1.723v-3.277h12v3h2v-3h4c6.617 0 12 5.383 12 12v21.184c-1.163.413-2 1.512-2 2.816v2c0 1.657 1.343 3 3 3s3-1.343 3-3v-2c0-1.304-.837-2.403-2-2.816z"/><path d="m10 7h6v2h-6z"/><path d="m13 13c.338 0 .671.018 1 .051v-2.051h-2v2.051c.329-.033.662-.051 1-.051z"/><path d="m33 47h16v2h-16z"/><path d="m41 13c.338 0 .671.018 1 .051v-2.051h-2v2.051c.329-.033.662-.051 1-.051z"/><path d="m33 45h16v-18h-16zm12-2h-8v-2h8zm-10-14h12v2h-12zm10 4v2h-8v-2zm-10 4h12v2h-12z"/><path d="m38 7h6v2h-6z"/><path d="m33 23v2h16v-2c0-4.411-3.589-8-8-8s-8 3.589-8 8z"/><path d="m21 23c0-4.411-3.589-8-8-8s-8 3.589-8 8v2h16z"/><path d="m33 55h16v2h-16z"/><path d="m5 47h16v2h-16z"/><path d="m5 51h44v2h-44z"/><path d="m5 55h16v2h-16z"/><path d="m31 59h20v2h-20z"/><path d="m3 59h20v2h-20z"/><path d="m21 27h-16v18h16zm-4 16h-8v-2h8zm2-4h-12v-2h12zm-10-4v-2h8v2zm10-4h-12v-2h12z"/></svg>