<?xml version="1.0" standalone="no"?>
<!DOCTYPE svg PUBLIC "-//W3C//DTD SVG 1.1//EN" "http://www.w3.org/Graphics/SVG/1.1/DTD/svg11.dtd">
<svg xmlns="http://www.w3.org/2000/svg">
<metadata>Copyright (C) 2019 by original authors @ fontello.com</metadata>
<defs>
<font id="pcm" horiz-adv-x="1000" >
<font-face font-family="pcm" font-weight="400" font-stretch="normal" units-per-em="1000" ascent="850" descent="-150" />
<missing-glyph horiz-adv-x="1000" />
<glyph glyph-name="sig-flow-v2" unicode="&#xe800;" d="M213 250c-136 0-213-11-213 0v180c0 6 79 0 214 0v118c0 6 2 11 6 15s9 6 14 6c5 0 11-2 14-6l199-208c4-4 6-9 6-15s-2-11-6-15l-40-40-159-157c-4-4-9-6-14-6-5 0-11 2-15 6s-6 9-6 15v107z m500 0c-136 0-213-11-213 0v180c0 6 79 0 214 0v118c0 6 2 11 6 15s9 6 14 6c5 0 11-2 14-6l199-208c4-4 6-9 6-15s-2-11-6-15l-40-40-159-157c-4-4-9-6-14-6-5 0-11 2-15 6s-6 9-6 15v107z m-713-212h1011v-187h-1011v187z m0 812h1042v-186h-1042v186z" horiz-adv-x="1000" />

<glyph glyph-name="asset-motor" unicode="&#xe801;" d="M781 99l10 0c9 0 17-8 17-17l0-20-536 0 0 20c0 9 7 17 17 17l10 0 0 37 482 0 0-37z m17 63l-555 0c-10 0-19 8-19 18l0 419c0 10 9 18 19 18l143 0 0 13c0 5 4 8 9 8l268 0c4 0 8-3 8-8l0-13 127 0 0-455z m73 0l-43 0 0 455 43 0c39 0 70-31 70-70l0-315c0-39-31-70-70-70z m-674 44l-33 0c-10 0-18 8-18 18l0 331c0 10 8 18 18 18l33 0 0-367z m518 34l0 40-403 0 0-40 403 0z m0 85l0 40-403 0 0-40 403 0z m-600 22l-28 0c-4 0-7 3-7 6l0 3-76 0c-2 0-4 2-4 4l0 59c0 3 2 5 4 5l76 0 0 2c0 4 3 7 7 7l28 0 0-86z m881 9l-24 0 0 67 24 0c2 0 4-1 4-3l0-61c0-2-2-3-4-3z m-281 53l0 41-403 0 0-41 403 0z m0 85l0 40-403 0 0-40 403 0z" horiz-adv-x="1000" />

<glyph glyph-name="sig-capacitor" unicode="&#xe802;" d="M804 279v-285h-270v712h270v-285h202v-142h-202z m-607 142v285h269v-712h-269v285h-203v142h203z" horiz-adv-x="1000" />

<glyph glyph-name="sig-heat" unicode="&#xe803;" d="M733 428c-24 26-56 62-56 129s32 103 56 129c20 24 33 37 33 70h88c0-67-32-103-55-129-21-24-33-37-33-70s12-47 33-70c23-26 55-62 55-129s-32-103-55-129c-21-24-33-38-33-70h-89c0 67 32 103 56 129 20 23 33 37 33 70s-13 46-33 70z m-729-406h992v-92h-992v92z m456 406c-24 26-56 62-56 129s32 103 56 129c20 23 33 37 33 70h88c0-67-32-103-55-129-21-23-33-37-33-70s12-47 33-70c23-26 55-62 55-129s-32-103-55-130c-21-23-33-37-33-69h-89c0 67 32 103 56 129 20 23 33 37 33 70s-13 46-33 70z m-273 0c-24 26-56 62-56 129s32 103 56 129c20 24 33 37 33 70h88c0-67-32-103-55-129-21-24-33-37-33-70s12-47 33-70c23-26 55-62 55-129s-32-103-55-129c-21-24-33-38-33-70h-89c0 67 32 103 56 129 20 23 33 37 33 70s-13 46-33 70z" horiz-adv-x="1000" />

<glyph glyph-name="sig-humidity" unicode="&#xe804;" d="M359-129c-198 0-359 153-359 343 0 146 156 257 359 636 172-375 359-437 359-636 0-190-161-343-359-343z m-153 543c-38 0-68-30-68-68s30-69 68-69c38 0 69 31 69 69s-31 68-69 68z m7-378l332 331c12 14 12 35-1 48s-34 13-48 1l-331-331c-13-14-12-35 1-48s34-14 47-1z m290 1c38 0 69 31 69 69s-31 69-69 69c-38 0-68-31-68-69s30-69 68-69z" horiz-adv-x="750" />

<glyph glyph-name="sig-pressure" unicode="&#xe805;" d="M0 235v184c33 0 73-1 120-1v118c0 5 2 10 6 14s9 6 14 6c6 0 11-2 14-6l200-208c3-4 6-9 6-15s-3-10-6-14l-41-41-159-157c-3-3-8-5-14-5-5 0-10 2-14 6s-6 9-6 14v107c-48 0-88-1-120-2z m1000 191v-187c-36 2-88 4-154 4v-106c0-6-2-11-6-15s-9-6-15-6c-5 0-10 2-13 6l-159 156-41 41c-3 4-6 9-6 15s3 11 6 15l41 42 158 166c4 3 9 6 14 6 6 0 11-3 15-6s6-10 6-15v-118c65 0 118 1 154 2z m-610 424h186c-1-36-3-86-3-147h106c6 0 11-3 15-7s6-9 6-14c0-5-2-10-6-14l-156-159-41-40c-4-4-9-6-15-6s-11 2-15 6l-42 40-166 159c-3 3-6 8-6 14 0 5 3 10 6 14s10 6 15 6h118c0 62-1 112-2 148z m186-1000h-186c1 35 2 82 2 139h-118c-5 0-11 2-15 6s-6 9-6 14c0 5 3 11 6 14l208 199c4 4 10 6 15 6s11-2 15-6l41-40 156-159c4-4 6-9 6-14 0-5-2-11-6-15s-9-6-15-6h-106c0-56 1-103 3-138z m-92 421c-39 0-71 32-71 71s32 71 71 71c39 0 71-32 71-71s-32-71-71-71z" horiz-adv-x="1000" />

<glyph glyph-name="sig-vibration" unicode="&#xe806;" d="M582 474c12-4 13-6 16-17l25-165 26 92c0 0 20 29 38 8 2-3 3-7 4-10l18-95 13 34c0 0 7 13 19 14 11 1 20-7 23-17l38-170 28 123c0 0 1 3 4 8 3 4 7 7 13 8 2 1 2 1 5 1l127-1c18-1 28-24 15-37-3-3-6-5-15-6l-110 1-46-201c0 0-10-19-26-16-8 1-14 8-17 16l-43 196-16-40c0 0-5-10-14-12-12-4-25 4-28 16l-14 76-26-98c0 0-21-30-39-8-2 3-3 6-4 10l-16 104-40-355c0 0-14-30-34-16-6 4-9 10-10 16l-45 613-45-372c0 0-6-17-19-19-11-1-22 7-25 19l-17 154-25-290c0 0-8-20-23-19-10 0-19 8-21 18l-30 225-20-78c0 0-4-11-13-15-11-5-25 2-29 14l-26 92-16-24c0 0-8-10-18-10l-103 0c-17 1-29 23-15 37 4 3 6 5 15 6l91 0 35 55c0 0 29 24 39-6l18-60 27 109c0 0 11 20 27 16 8-2 14-9 16-18l19-141 27 309c0 0 13 29 33 16 6-3 9-9 10-16l22-185 50 410c0 0 12 27 31 17 7-3 11-10 12-18l44-602 33 286c0 0 5 17 18 19 5 0 7 0 9-1z" horiz-adv-x="1000" />

<glyph glyph-name="sig-vibration-accel" unicode="&#xe807;" d="M581 471c13-4 14-6 17-18l25-166 26 92c0 0 8 18 23 16 9-1 17-8 19-17l17-95 14 34c0 0 9 15 22 14 9-1 17-8 20-17l38-172 28 125c0 0 0 2 3 7 3 4 8 8 13 9 3 0 3 0 6 0l127 0c13-1 24-14 21-28-2-7-8-13-16-15-2-1-3-1-5-1l-110 1-46-202c0 0-20-30-38-9-2 2-4 6-5 9l-44 197-15-40c0 0-4-7-9-10-12-7-29 0-33 14l-14 76-27-98c0 0-16-26-34-12-4 3-7 8-8 14l-16 105-41-358c0 0-4-16-18-19-12-2-23 8-25 20l-45 615-45-373c0 0-6-19-22-19-11 0-20 8-22 19l-17 155-26-291c0 0-6-21-22-20-10 0-19 8-21 19l-30 226-20-79c0 0-6-15-18-16-11-2-21 5-24 15l-27 92-15-24c0 0-6-8-13-10-2 0-3 0-5 0l-103 0c-17 1-29 24-15 37 4 4 6 6 15 6l91 0 35 55c0 0 13 14 27 9 6-3 10-8 12-14l17-61 28 110c0 0 8 16 21 17 11 0 20-9 22-19l19-142 27 310c0 0 4 17 17 20 12 2 24-7 26-19l22-187 50 413c0 0 7 20 23 19 10-1 19-10 20-20l44-605 32 287c0 0 6 17 19 19 5 1 7 0 8 0z m274 7l-11 28-1 0c-10-12-20-20-30-25-10-5-23-7-39-7-20 0-36 6-47 17-12 12-18 28-18 49 0 22 8 38 24 49 15 10 38 16 69 17l37 1 0 9c0 21-11 32-33 32-16 0-36-5-58-15l-19 38c24 13 50 19 79 19 28 0 50-6 65-18 15-12 22-31 22-56l0-138-40 0z m-16 96l-22-1c-17 0-29-3-37-9-8-5-12-13-12-25 0-16 9-24 27-24 13 0 24 4 32 12 8 7 12 17 12 30l0 17z" horiz-adv-x="1000" />

<glyph glyph-name="sig-vibration-velocity" unicode="&#xe808;" d="M580 474c13-4 14-6 17-18l25-166 25 93c0 0 9 17 24 16 9-1 17-9 19-18l17-96 14 35c0 0 4 10 13 13 12 3 25-4 28-16l38-172 29 124c0 0 0 3 3 8 3 4 8 7 13 9 2 0 3 0 5 0l127 0c9-1 12-3 16-7 11-12 4-36-16-37l-110 1-46-203c0 0-19-30-37-9-3 2-4 6-5 9l-44 197-16-39c0 0-4-10-14-13-11-4-24 4-27 17l-14 76-27-99c0 0-10-20-26-15-9 2-15 9-16 17l-17 106-40-359c0 0-6-19-20-20-12 0-22 9-23 21l-45 617-45-375c0 0-6-17-19-19-11-1-22 8-25 19l-17 155-25-291c0 0-6-19-20-20-11-1-21 7-24 19l-30 226-20-79c0 0-5-14-18-16-10-2-20 5-24 16l-26 92-15-24c0 0-6-8-13-10-3 0-3 0-6-1l-102 0c-17 2-29 24-15 38 3 3 6 5 15 6l90 0 35 55c0 0 16 16 30 8 5-3 8-8 10-13l17-61 27 110c0 0 11 20 27 16 8-2 15-9 16-18l19-142 27 311c0 0 8 23 26 20 9-2 16-10 18-19l21-187 50 414c0 0 8 22 26 18 9-2 16-10 17-20l44-606 32 287c0 0 7 23 27 19z m191 5l-79 208 59 0 40-119c5-15 8-29 9-43l1 0c1 12 3 27 8 43l40 119 60 0-80-208-58 0z" horiz-adv-x="1000" />

<glyph glyph-name="sig-vibration-displacement" unicode="&#xe809;" d="M581 474c13-4 14-6 16-18l26-167 25 93c0 0 16 25 34 12 4-3 7-8 8-14l18-95 13 34c0 0 5 10 14 13 11 4 24-4 28-16l38-172 28 125c0 0 0 3 3 7 3 5 8 8 13 9 3 1 3 1 6 1l127-1c17-1 28-24 15-37-4-4-6-6-16-6l-109 0-46-202c0 0-19-30-38-10-2 3-4 6-5 10l-43 197-16-40c0 0-9-15-23-13-9 1-17 8-19 18l-13 75-27-99c0 0-8-15-21-16-11 0-20 8-22 19l-16 105-40-359c0 0-6-18-21-19-11-1-21 9-23 20l-44 617-46-374c0 0-5-17-18-19-12-2-23 7-25 19l-18 155-25-292c0 0-5-18-20-20-11-1-21 8-23 19l-30 227-20-79c0 0-8-17-21-17-10 0-18 7-21 16l-26 92-16-24c0 0-6-8-13-9-2-1-3-1-5-1l-102 0c-18 1-29 24-16 37 4 4 6 6 16 7l90 0 35 55c0 0 29 23 39-6l17-60 28 110c0 0 11 20 27 16 8-3 14-10 16-19l19-142 27 311c0 0 12 30 33 17 6-3 9-9 10-16l21-187 50 414c0 0 8 21 24 19 10-1 18-10 20-20l44-607 32 288c0 0 5 17 18 19 6 1 7 0 9 0z m207 0c-24 0-44 10-57 29-14 19-21 45-21 79 0 34 7 60 21 79 14 19 34 29 59 29 26 0 46-10 59-31l2 0c-3 16-4 30-4 42l0 66 57 0 0-289-44 0-11 27-2 0c-13-20-33-31-59-31z m20 46c14 0 25 4 32 12 7 9 10 23 11 43l0 6c0 23-4 39-10 48-7 10-18 15-34 15-13 0-22-6-29-16-7-11-11-27-11-47 0-21 4-36 11-46 7-10 17-15 30-15z" horiz-adv-x="1000" />

<glyph glyph-name="sig-strain" unicode="&#xe80a;" d="M500 465c-21 0-41-6-59-17l-36 174-62 0 157 228 157-228-62 0-36-174c-17 11-37 17-59 17z m-59-213l-36-174-62 0 157-228 157 228-62 0-36 174c-18-10-37-16-59-16-21 0-41 6-59 16z m-39 157l-174 36 0 62-228-157 228-157 0 62 174 37c-11 17-17 37-17 58 0 22 6 42 17 59z m196-117l174-37 0-62 228 157-228 157 0-62-174-36c11-17 17-37 17-59 0-21-6-41-17-58z m-98 141c-46 0-83-37-83-83 0-46 37-83 83-83 46 0 83 37 83 83 0 46-37 83-83 83z" horiz-adv-x="1000" />

<glyph glyph-name="sig-concentration" unicode="&#xe80b;" d="M249 831l264-739 263 739h206v-965h-159v318l16 426-270-744h-114l-269 743 16-425v-318h-159v965z" horiz-adv-x="1000" />

<glyph glyph-name="sig-flow" unicode="&#xe80c;" d="M8 113h981v-91h-981v91z m0 547h981v-91h-981v91z m994-313c2-3 4-6 4-10s-2-7-4-10l-135-131c-4-3-10-4-15-2s-8 7-8 12v71c-77 0-210-29-304-61l-13 21 43 41c15 16 24 37 25 58s-9 44-24 59l-44 44c-4 4-5 10-2 15s9 7 14 5c95-31 229-62 305-62v78c0 6 3 10 8 13s11 1 15-3l135-138z m-975-127c-8 0-13 6-13 13v208c0 4 1 7 4 10s5 4 9 4c2 0 3-1 5-1 91-38 240-57 331-57v78c0 4 2 8 4 10s6 4 10 4c4 0 7-1 10-4l134-138c3-2 4-6 4-10s-1-7-4-9l-27-27-108-105c-2-2-5-3-9-3-4 0-7 1-10 4s-4 6-4 10v70c-92 0-240-19-331-56-2-1-4-1-5-1z" horiz-adv-x="1000" />

<glyph glyph-name="sig-conductivity" unicode="&#xe80d;" d="M952 801v-124h-240c71-55 123-115 159-181s52-137 52-213c0-120-39-217-118-292s-182-113-308-113c-126 0-229 38-308 113s-119 172-119 292c0 76 17 147 53 212s88 127 158 182h-240v124h390v-124c-57-45-100-100-129-163s-44-136-44-218c0-91 22-163 64-216s101-78 175-78c73 0 132 26 174 79s64 125 64 216c0 81-15 154-43 217s-73 118-130 163v124h390z" horiz-adv-x="1000" />

<glyph glyph-name="sig-binary" unicode="&#xe80e;" d="M500-150c276 0 500 224 500 500s-224 500-500 500c-276 0-500-224-500-500s224-500 500-500z m0 125v750c207 0 375-168 375-375s-168-375-375-375z" horiz-adv-x="1000" />

<glyph glyph-name="sig-categorical" unicode="&#xe80f;" d="M642 400h358c-25 250-239 450-500 450s-475-200-500-450h358c21 50 76 100 142 100s122-50 142-100z m-92-193v-357c238 24 427 200 450 450h-358c-15-50-49-76-92-93z m-192 93h-358c24-250 213-426 450-450v357c-43 17-77 43-92 93z" horiz-adv-x="1000" />

<glyph glyph-name="sig-volume" unicode="&#xe810;" d="M193 38h-5v687h5c26 71 140 125 276 125s249-54 275-125h6v-687h-6c4-11 6-21 6-32 0-86-126-156-281-156s-281 70-281 156c0 11 1 21 5 32z m276 562c121 0 219 42 219 94s-98 94-219 94c-121 0-219-42-219-94s98-94 219-94z" horiz-adv-x="1000" />

<glyph glyph-name="sig-area" unicode="&#xe811;" d="M63 788h750v-750h-750v750z m812 0h125v-750h-125v750z m-812-813h750v-125h-750v125z" horiz-adv-x="1000" />

<glyph glyph-name="sig-angle" unicode="&#xe812;" d="M817 119l-580 577 56 56 655-661 52-51h-98l-3-3-2 3h-897v79h817z m-263 143c-49 0-79-37-79-81h-317c13 122 77 255 161 302 0 0 235-221 235-221z" horiz-adv-x="1000" />

<glyph glyph-name="sig-sound" unicode="&#xe813;" d="M31 510v-320h209l260-268v856l-260-268h-209z m703-160c0 91-50 175-130 215v-430c77 39 130 120 130 215z m-130 469v-110c151-46 261-190 261-359s-110-313-261-359v-110c209 49 365 240 365 469s-156 420-365 469v0z" horiz-adv-x="1000" />

<glyph glyph-name="sig-ph" unicode="&#xe814;" d="M398 327c0 58-4 123-43 161-21 21-55 34-93 34-41 0-72-10-101-45v41h-75v-536h77v193c27-33 59-43 100-43 38 0 71 12 92 33 39 39 43 104 43 162z m500-191h-82v234h-217v-234h-81v536h81v-229h217v229h82v-536z m-577 191c0-68-9-127-79-127s-79 59-79 127c0 68 10 127 79 127s79-59 79-127z" horiz-adv-x="1000" />

<glyph glyph-name="sig-dynVis" unicode="&#xe815;" d="M456 762l-57-362-3-48c-3-62 20-93 69-95 48-1 89 19 121 61l75 444h155l-104-629h-136l4 40c-39-36-81-54-126-53-34 0-66 10-93 28l-48-257h-156l144 871h155z" horiz-adv-x="1000" />

<glyph glyph-name="sig-weight" unicode="&#xe816;" d="M310 583c-3 13-4 27-4 41 0 113 87 205 194 205s194-92 194-205c0-14-1-28-3-41h153l161-657h-1010l127 657h188z m190-33c43 0 78 37 78 82s-35 82-78 82c-43 0-78-36-78-82s35-82 78-82z" horiz-adv-x="1000" />

<glyph glyph-name="sig-torque" unicode="&#xe817;" d="M1000 303v129l-157 36c-6 20-15 40-25 58l84 134-92 91-133-84c-23 13-48 23-73 31l-36 152h-129l-35-150c-28-7-55-18-80-32l-133 84-92-92 84-133c-10-19-19-38-26-58l-157-37v-129l146-34c7-28 17-56 30-82l-81-129 92-92 121 76c31-19 65-34 100-43l34-149h130l35 153c30 9 59 22 85 39l122-76 91 92-81 129c14 26 24 54 30 82l146 34z m-626-27c5-6 5-15 2-21s-11-12-19-12c-7 0-14 4-18 11-32 51-40 114-20 172s64 102 121 123l-1 88c0 5 3 10 8 12s11 1 15-3l104-116c4-5 4-12 0-17l-100-120c-4-4-9-6-14-4s-9 7-9 12l-2 103c-55-27-91-82-91-144 0-30 9-59 24-84z m196-107l2-95c0-5-4-10-9-12s-10-1-14 3l-105 116c-4 5-4 12 0 17l101 120c3 4 9 5 14 4s9-7 9-12l2-97c44 19 78 56 92 102s5 97-23 136c-6 9-5 21 3 28 5 4 10 6 16 6s12-4 15-9c37-52 47-119 26-180s-68-108-129-127h0z" horiz-adv-x="1000" />

<glyph glyph-name="sig-time" unicode="&#xe818;" d="M846 699c-165 167-424 193-618 62s-269-383-180-601c89-219 319-343 548-296s393 249 393 485c0 132-51 257-143 350z m-381 22c0 19 16 35 35 35s35-16 35-35v-71c0-19-16-35-35-35s-35 16-35 35v71z m-256-424h-69c-20 0-35 16-35 35s15 36 35 36h69c20 0 35-16 35-36s-15-35-35-35z m326-318c0-19-16-35-35-35s-35 16-35 35v71c0 20 16 35 35 35s35-15 35-35v-71z m184 438l-227-230-217 344c-14 21-8 51 14 65s50 7 64-15l155-245 145 147c12 12 29 17 45 13s29-18 33-34c4-16 0-33-12-45z m142-120h-70c-20 0-35 16-35 35s15 36 35 36h70c19 0 34-16 34-36s-15-35-34-35z" horiz-adv-x="1000" />

<glyph glyph-name="sig-temperature" unicode="&#xe819;" d="M622 283v421c0 75-60 136-135 136s-136-61-136-136v-421c-60-44-95-114-94-189 1-128 105-232 234-232 61 0 120 25 163 68s68 103 67 164c0 78-31 147-99 189z m-135-305c-64 0-116 52-116 116 0 51 42 94 87 110v137c0 21 8 39 29 39s29-17 29-39v-137c45-16 87-59 87-110 0-64-52-116-116-116z" horiz-adv-x="1000" />

<glyph glyph-name="sig-string" unicode="&#xe81a;" d="M169 428l67 122h88l-108-182 111-189h-87l-70 127-70-127h-88l112 189-108 182h87l66-122z m337-129l72 251h84l-140-427c-21-62-57-94-109-94-11 0-24 2-38 7v64l15-1c20 0 35 4 45 12s18 20 24 38l11 32-123 369h85l74-251z m292-53h187v-67h-285v55l178 249h-175v67h275v-52l-180-252z" horiz-adv-x="1000" />

<glyph glyph-name="signal" unicode="&#xe81b;" d="M928 295h-241l-101 149-149-507-186 358h-187c-29 0-53 29-53 66s24 66 53 66h246l101-193 139 474 188-281h190c30 0 54-30 54-66s-24-66-54-66z" horiz-adv-x="1000" />

<glyph glyph-name="sig-percent" unicode="&#xe81c;" d="M188 806c80 0 145-69 145-155s-65-156-145-156c-80 0-144 70-144 156s64 155 144 155z m34-882c-28-28-72-27-100 2s-28 78-2 108l698 751c29 29 73 28 101-1s28-78 1-108l-698-752z m595 30c-80 0-144 69-144 155s64 156 144 156c80 0 144-70 144-156s-64-155-144-155z" horiz-adv-x="1000" />

<glyph glyph-name="sig-impedance" unicode="&#xe81d;" d="M58-91v121h235c-69 54-121 113-155 178s-52 133-52 208c0 117 39 212 116 286s178 110 301 110c124 0 224-37 302-110s116-169 116-286c0-74-18-143-52-208s-86-123-155-178h235v-121h-382v121c57 45 99 98 127 160s42 133 42 213c0 89-20 159-62 211s-98 77-171 77c-72 0-129-26-170-77s-62-122-62-212c0-79 14-150 42-212s70-115 127-160v-121h-382z" horiz-adv-x="1000" />

<glyph glyph-name="sig-number" unicode="&#xe81e;" d="M189 136h-71v361l-105-37v63l167 65h9v-452z m440 0h-287v52l142 163c21 24 36 44 44 61s13 32 13 48c0 22-5 39-17 52s-27 20-46 20c-23 0-41-7-54-22s-19-35-19-61h-71c0 27 6 52 18 74s29 39 51 51c22 12 47 18 76 18 41 0 74-11 98-33s35-52 35-91c0-22-6-46-18-70s-31-53-59-84l-104-118h198v-60z m142 259h43c22 1 39 7 52 18s19 29 19 51c0 22-5 38-16 50s-26 18-48 18c-19 0-35-6-47-17s-19-27-19-46h-71c0 23 6 44 17 63s28 34 49 44c21 11 44 16 70 16 42 0 76-11 100-34s37-53 37-94c0-20-6-39-19-57s-28-31-47-40c23-8 41-22 53-40s19-40 19-65c0-40-13-72-40-96s-60-36-103-36c-41 0-75 11-101 35s-39 53-39 92h71c0-20 6-36 19-49s29-18 51-18c22 0 39 6 52 18s19 31 19 54c0 24-7 42-20 55s-33 19-59 19h-42v59z" horiz-adv-x="1000" />

<glyph glyph-name="sig-location" unicode="&#xe81f;" d="M500 840c-189 0-343-154-343-343 0-257 343-637 343-637s343 380 343 637c0 189-153 343-343 343z m0-465c-68 0-122 54-122 122s54 122 122 122c68 0 122-54 122-122s-54-122-122-122v0z" horiz-adv-x="1000" />

<glyph glyph-name="sig-light" unicode="&#xe820;" d="M499-137c-92 0-100 88-100 88h199c0 0-11-88-99-88z m124 273c12 0 23-10 23-23s-11-23-23-23h-245c-13 0-23 10-23 23s10 23 23 23h245z m0-92c12 0 23-10 23-23s-11-23-23-23h-245c-13 0-23 10-23 23s10 23 23 23h245z m-143 794c92 5 183-27 250-90s105-151 106-243c0-73-25-145-70-203-33-45-53-71-67-88-17-20-42-32-69-32h-262c-26 0-51 11-68 31-15 18-37 44-68 87-76 98-91 230-39 343s162 188 287 195z" horiz-adv-x="1000" />

<glyph glyph-name="sig-length" unicode="&#xe821;" d="M593 663l-83-83 129-124-31-34-130 126-84-84 82-83-32-34-82 85-86-86 123-119-31-34-124 121-75-75 91-93-32-34-91 95-58-58 218-217 598 598-217 218-53-53 81-83-31-35-82 86z m-568-462c24 23 223 221 598 595 34 38 70 38 107 0 55-56 182-187 215-220 32-32 26-70 0-95s-563-579-596-608c-33-28-68-33-104 0s-189 188-220 223c-31 34-35 70 0 105z" horiz-adv-x="1000" />

<glyph glyph-name="sig-force" unicode="&#xe822;" d="M-2 76h1011v-109h-1011v109z m0 618h1011v-109h-1011v109z m24-196c0 6 6 10 14 10h220c3 0 7-1 10-3s4-4 4-7c0-1-1-2-1-4-39-67-60-178-60-246h83c4 0 7-1 10-3s4-5 4-8c0-2-1-5-4-7l-146-100c-2-2-6-3-10-3s-8 1-10 3l-29 20-110 80c-2 2-4 5-4 7 0 3 2 6 4 8s7 3 11 3h75c0 68-21 179-60 247 0 1-1 2-1 3z m354 0c0 6 6 10 14 10h220c3 0 7-1 10-3s4-4 4-7c0-1-1-2-1-4-40-67-60-178-60-246h82c4 0 8-1 11-3s4-5 4-8c0-2-1-5-4-7l-146-100c-3-2-6-3-10-3s-8 1-11 3l-28 20-110 80c-2 2-4 5-4 7 0 3 2 6 4 8s7 3 11 3h74c0 68-20 179-59 247-1 1-1 2-1 3z m354 0c0 6 6 10 14 10h219c4 0 8-1 10-3s4-4 4-7c0-1 0-2-1-4-39-67-59-178-59-246h82c4 0 8-1 11-3s4-5 4-8c0-2-2-5-4-7l-146-100c-3-2-7-3-10-3s-8 1-11 3l-28 20-110 80c-3 2-4 5-4 7 0 3 1 6 4 8s7 3 11 3h74c0 68-20 179-59 247-1 1-1 2-1 3z" horiz-adv-x="1000" />

<glyph glyph-name="sig-current" unicode="&#xe823;" d="M278 303h143v-453l269 604h-126v405z" horiz-adv-x="1000" />

<glyph glyph-name="battery-100" unicode="&#xe824;" d="M796 498l0-296-642 0 0 296 642 0z m50-222l49 0 0 148-49 0 0 112c0 3-1 6-3 9-2 2-5 3-9 3l-718 0c-3 0-6-1-8-3-2-3-4-6-4-9l0-372c0-3 1-6 4-9 3-2 6-3 8-3l718 0c4 0 7 1 9 3 2 3 3 6 3 9l0 112z m99 148l0-148c0-14-4-26-14-35-10-10-22-15-36-15l0-62c0-17-6-31-18-43-12-12-26-18-43-18l-718 0c-16 0-31 6-43 18-13 12-19 26-18 43l0 372c0 17 6 31 18 43 12 12 26 18 43 18l718 0c17 0 31-6 43-18 12-12 18-26 18-43l0-62c14 0 26-5 36-15 10-9 14-21 14-35z" horiz-adv-x="1000" />

<glyph glyph-name="battery-50" unicode="&#xe825;" d="M154 202l0 296 346 0 0-296-346 0z m741 272c14 0 26-5 36-15 10-9 14-21 14-35l0-148c0-14-4-26-14-35-10-10-22-15-36-15l0-62c0-17-6-31-18-43-12-12-26-18-43-18l-718 0c-16 0-31 6-43 18-13 12-19 26-18 43l0 372c0 17 6 31 18 43 12 12 26 18 43 18l718 0c17 0 31-6 43-18 12-12 18-26 18-43l0-62z m0-198l0 148-49 0 0 112c0 3-1 6-3 9-2 2-5 3-9 3l-718 0c-3 0-6-1-8-3-2-3-4-6-4-9l0-372c0-3 1-6 4-9 3-2 6-3 8-3l718 0c4 0 7 1 9 3 2 3 3 6 3 9l0 112 49 0z" horiz-adv-x="1000" />

<glyph glyph-name="battery-75" unicode="&#xe826;" d="M154 202l0 296 494 0 0-296-494 0z m741 272c14 0 26-5 36-15 10-9 14-21 14-35l0-148c0-14-4-26-14-35-10-10-22-15-36-15l0-62c0-17-6-31-18-43-12-12-26-18-43-18l-718 0c-16 0-31 6-43 18-13 12-19 26-18 43l0 372c0 17 6 31 18 43 12 12 26 18 43 18l718 0c17 0 31-6 43-18 12-12 18-26 18-43l0-62z m0-198l0 148-49 0 0 112c0 3-1 6-3 9-2 2-5 3-9 3l-718 0c-3 0-6-1-8-3-2-3-4-6-4-9l0-372c0-3 1-6 4-9 3-2 6-3 8-3l718 0c4 0 7 1 9 3 2 3 3 6 3 9l0 112 49 0z" horiz-adv-x="1000" />

<glyph glyph-name="battery-0" unicode="&#xe827;" d="M895 474c14 0 26-5 36-15 10-9 14-21 14-35l0-148c0-14-4-26-14-35-10-10-22-15-36-15l0-62c0-17-6-31-18-43-12-12-26-18-43-18l-718 0c-16 0-31 6-43 18-13 12-19 26-18 43l0 372c0 17 6 31 18 43 12 12 26 18 43 18l718 0c17 0 31-6 43-18 12-12 18-26 18-43l0-62z m0-198l0 148-49 0 0 112c0 3-1 6-3 9-2 2-5 3-9 3l-718 0c-3 0-6-1-8-3-2-3-4-6-4-9l0-372c0-3 1-6 4-9 3-2 6-3 8-3l718 0c4 0 7 1 9 3 2 3 3 6 3 9l0 112 49 0z" horiz-adv-x="1000" />

<glyph glyph-name="battery-25" unicode="&#xe828;" d="M154 202l0 296 198 0 0-296-198 0z m741 272c14 0 26-5 36-15 10-9 14-21 14-35l0-148c0-14-4-26-14-35-10-10-22-15-36-15l0-62c0-17-6-31-18-43-12-12-26-18-43-18l-718 0c-16 0-31 6-43 18-13 12-19 26-18 43l0 372c0 17 6 31 18 43 12 12 26 18 43 18l718 0c17 0 31-6 43-18 12-12 18-26 18-43l0-62z m0-198l0 148-49 0 0 112c0 3-1 6-3 9-2 2-5 3-9 3l-718 0c-3 0-6-1-8-3-2-3-4-6-4-9l0-372c0-3 1-6 4-9 3-2 6-3 8-3l718 0c4 0 7 1 9 3 2 3 3 6 3 9l0 112 49 0z" horiz-adv-x="1000" />

<glyph glyph-name="sig-switch" unicode="&#xe829;" d="M786 845c2 0 4 0 6 0 5-1 10-2 15-4 9-3 17-8 24-15 7-7 12-15 15-24 2-5 3-9 3-14 0-2 1-5 1-7 1-287 0-574 0-861 0-2 0-4-1-6 0-5-1-10-3-14-3-9-8-18-15-25-6-7-15-12-24-15-5-2-10-3-15-4-2 0-4 0-6 0-190-2-379 0-569 0-2 0-4 0-6 0-5 1-10 2-14 3-9 3-16 7-23 13-8 7-14 16-17 26-2 5-3 10-4 15 0 2 0 4 0 7-2 287 0 574 0 860 0 3 0 5 0 7 1 5 2 10 3 14 3 9 8 17 15 24 6 7 15 13 24 16 5 2 10 3 15 4 2 0 4 0 7 0 189 1 379 1 569 0z m-3-66l-564 0 0-857 564 0 0 857z m-159-640l-189 0c-1 0-1 0-2 1-2 0-4 0-5 1-2 1-4 2-6 4-2 2-3 4-4 7 0 1 0 2 0 3l-42 84c0 1 0 1 0 2-1 2-1 4-1 6 0 0 0 1 0 1 0 1 0 1 0 2l0 284c0 1 0 2 0 3 1 1 1 3 1 4 2 2 3 5 5 7 2 1 4 2 6 3 2 0 3 1 4 1 1 0 1 0 2 0l49 0c0 0 1 0 1 0l1 0 156 0 2 0c1 0 1 0 2 0 1-1 2-1 3-1 2-1 4-3 6-4 2-2 3-5 4-7 0-1 1-2 1-3 0-1 0-2 0-3l0-171 56-113c1-1 1-1 1-2 1-1 1-1 1-2 1-2 1-3 1-5 0-2 0-4-1-5 0-3-1-5-3-7l-33-79c0 0 0-1 0-1-1-1-1-1-2-2-2-3-5-6-9-7-2 0-3 0-4-1l-1 0z m8 84l-149 0-20-48 149 0 20 48z m-41 114l-149 0 40-78 149 0-40 78z m-8 180l-154 0 0-143 154 0 0 143z" horiz-adv-x="1000" />

<glyph glyph-name="sig-function" unicode="&#xe82a;" d="M823 481c46-23 87-56 117-99 73-106 80-255 15-369-30-51-73-95-127-121-3-1-5-2-8-2l-4 2-2 4 0 12c1 7 11 10 20 16 58 41 81 117 89 188 9 77 6 155-16 228-15 49-49 90-91 118 0 0-2 1-2 6l0 11 2 5 4 2c1 0 2-1 3-1z m-200 0l4-3 0-3 0-11c-1-7-11-10-19-16-57-39-81-113-90-183-9-79-6-160 17-234 15-48 48-89 90-118 0 0 2-1 2-5l0-12-2-5-4-1c-1 0-2 0-3 0 0 0-16 9-28 16-145 89-194 308-97 464 30 47 71 86 122 110 2 1 5 2 8 1z m-212 22l-56-211c-29-100-59-201-116-289-30-45-68-86-119-104-33-12-71-14-99 6-2 2-1 0-8 7-21 21-17 62 16 75 20 8 46 2 54-19 6-13-1-27-11-38-2-3-7-5 2-7 0 0 1 0 1 0 1 0 1 0 2 0 1 0 1 0 2 0 35-1 65 26 83 54 23 37 34 80 45 121 8 27 16 54 23 82l91 323-86 0c0 0-6 1-6 8l7 31c2 5 9 5 17 5 30 1 61 3 82 27 16 20 27 44 37 66 36 72 86 143 162 165 36 10 78 7 104-22 17-19 23-50 5-70-22-24-76-19-75 22 0 12 11 22 13 34 0 0 0 4-4 6-18 10-43-4-60-19-31-31-48-75-62-116-11-31-21-62-31-93 0 0 64 1 63 0l4-2c0 0 2-4 2-4 0 0 0-2 0-2 0 0-9-31-9-31l-3-5-3 0-67 0z m298-185c14-15 25-32 31-53 3-9 5-18 8-28 0 0 19 30 19 30 1 1 1 1 2 2 18 24 42 51 72 51 19 1 39-13 37-37-2-14-16-27-34-25-18 2-27 24-57-14-11-13-20-28-29-43l0-1c9-40 17-81 29-120 0-1 0-2 1-3 1-4 2-9 6-10 6-2 21 14 31 29 3 6 8 14 8 14 4 2 5 1 7 1l11-6 3-4 0-5c-15-27-34-51-59-68-14-10-34-13-47-1-15 13-18 36-23 56-4 16-8 32-11 47l0 1c-22-37-43-76-78-100-18-13-42-18-60-3-16 12-14 42 5 51 14 6 30-1 41-11 4-3 4-7 14 2 19 17 32 40 45 61 8 13 16 26 23 40l0 0c-7 25-12 51-20 76-5 18-17 33-38 35-7 1-15 1-22 0l-5 0-3 4-1 2 0 12c1 3 2 5 5 6l83 14c3 0 2 1 6-2z" horiz-adv-x="1000" />

<glyph glyph-name="sig-fill-level" unicode="&#xe82b;" d="M716-50c0-2-1-5-2-8-5-19-10-33-15-41l-2-6-7-3c-47-37-458-65-617 2l-7 2c-1 4-2 8-3 12-8 21-17 60-25 106-51 249-56 505 15 748 5 15 10 30 15 45l5 13c112 19 225 27 339 27 100-1 200-9 299-27l4-12c37-119 53-244 59-369 3-56 3-113 0-170l-188 0 0-38 185 0c-3-34-7-68-12-102l-173 0 0-39 166 0c-7-34-14-67-24-101l-112 0 0-39 100 0z m193 414l91 0 0-103-91 0 0-48-100 100 100 100 0-49z m-205 326c-3 14-7 29-10 43-4 18-9 35-13 53l-1 0c-90 16-182 22-275 22-100-1-201-7-301-22l-2-1c-50-143-64-298-61-451 0-10 1-20 1-30 111 0 570 1 696 1 1 22 1 44 1 66l-204 0 0 39 203 0c-1 33-4 67-7 101l-145 0 0 39 141 0c-4 34-10 67-16 101l-95 0 0 39 88 0z" horiz-adv-x="1000" />

<glyph glyph-name="sig-sum-fn" unicode="&#xe82c;" d="M123-149l0 65 308 408-287 460 0 64 713 0 0-257-100 0c-9 32-16 57-24 76-6 20-15 38-25 51-12 15-26 26-42 33-17 8-37 11-64 11l-192 0 208-329 0-52-261-346 289 0c20 0 33 2 44 3 10 3 19 8 27 14 9 7 16 16 24 28 7 14 13 29 19 45 6 18 11 36 14 54l103 0-21-328-733 0z" horiz-adv-x="1000" />

<glyph glyph-name="entity-list" unicode="&#xe82d;" d="M966-26l-932 0c-17 1-33 16-34 35l0 682c1 18 16 34 34 35 311 0 621 0 931 0 18-1 35-16 35-35 0-227 0-455 0-682-1-18-16-34-34-35z m-23 695l-886 0 0-638 886 0 0 638z m-641-572l-177 0 0 71 177 0 0-71z m568 0l-498 0 0 71 498 0 0-71z m-568 145l-177 0 0 71 177 0 0-71z m568 0l-498 0 0 71 498 0 0-71z m-568 145l-177 0 0 71 177 0 0-71z m568 0l-498 0 0 71 498 0 0-71z m-568 145l-177 0 0 71 177 0 0-71z m568 0l-498 0 0 71 498 0 0-71z" horiz-adv-x="1000" />

<glyph glyph-name="asset-robot" unicode="&#xe82e;" d="M917-150l-856 0 0 147 278 0-87 174c17-7 34-10 53-10 62 0 115 39 136 93l214-257 262 0 0-147z m-615 549c52 0 95-42 95-94 0-52-43-95-95-95-52 0-95 43-95 95 0 52 43 94 95 94z m384 361l16 47c3 8 9 13 19 15l136 22c0 0 1 0 5 0 12-1 13-5 16-9 10-12 4-34-14-38l-122-19-26-76 12-43 70-48 111 56c21 9 48-26 20-42l-123-62c-7-4-16-4-24 1l-40 28-76-22-6 22-214-249c-15 63-72 110-140 110l270 215c-2-6-3-12-3-19 0-34 28-62 62-62 9 0 17 2 25 5l0 0c22 10 37 32 37 57 0 34-28 62-62 62l-10-1-9 29 70 21z m-51-71c22 0 40-18 40-40 0-21-18-39-40-39-21 0-39 18-39 39 0 22 18 40 39 40z" horiz-adv-x="1000" />

<glyph glyph-name="loc-office" unicode="&#xe82f;" d="M702 576l-71 0 0 72 71 0 0-72z m0-190l-71 0 0 71 71 0 0-71z m0-191l-71 0 0 72 71 0 0-72z m0-190l-71 0 0 71 71 0 0-71z m-166 571l-72 0 0 72 72 0 0-72z m0-190l-72 0 0 71 72 0 0-71z m0-191l-72 0 0 72 72 0 0-72z m0-262l-72 0 0 143 72 0 0-143z m-167 643l-71 0 0 72 71 0 0-72z m0-190l-71 0 0 71 71 0 0-71z m0-191l-71 0 0 72 71 0 0-72z m0-190l-71 0 0 71 71 0 0-71z m417-72l0 798-36 0 0 71-36 0 0 48-428 0 0-48-36 0 0-71-36 0 0-798-47 0 0-83 666 0 0 83-47 0z" horiz-adv-x="1000" />

<glyph glyph-name="cell-tower" unicode="&#xe830;" d="M770-112c-97 115-161 278-201 412-20 67-34 127-43 170-5 24-8 42-10 54 26 8 46 32 46 60 0 35-28 63-63 63-34 0-62-28-62-63 0-29 20-53 47-60-2-12-5-31-10-54-27-129-99-409-244-582-4-6-3-14 2-18 2-2 5-3 8-3 4 0 7 1 10 4 0 1 0 1 0 1l1 0 145 82 91-94c1-6 6-10 12-10 7 0 12 5 13 12l88 93 149-84 1 1c0 0 0 0 0-1 3-3 6-4 10-4 3 0 6 1 8 3 6 4 6 12 2 18z m-284 9l-67 70 67 39 0-109z m26 2l0 106 65-37-65-69z m106 75l38 40c18-33 36-64 57-93l-95 53z m-330-52c20 28 38 58 54 89l36-38-90-51z m67 112l81 76 47-77-82-47-46 48z m241-47l-83 46 47 78 81-77-45-47z m-110 89l-31 52 31 30 0-82z m26 80l29-28-29-48 0 76z m108-68l-47 45 17 28c9-24 19-49 30-73z m-211 68l14-23-40-38c9 20 18 41 26 61z m50 71l20-41-37-36-21 35 38 42z m116-42l-21-34-38 35 21 41 38-42z m-89 43l-9 19 9 11 0-30z m26 28l7-9-7-15 0 24z m43 5c2-8 5-16 8-25l-13 15 5 10z m-111-5l2-5-6-7c1 4 3 8 4 12z m68 163c8-35 18-78 32-123l-12-24-20 22 0 125z m-26-124l-1 1-21-24-9 18c13 44 23 84 31 119l0-114z m229 555c15-2 14-10 20-17 65-82 109-186 91-291-13-75-52-142-101-200 0 0-46-10-11 34 64 83 104 187 75 292-16 59-49 111-87 157 0 0-7 26 13 25z m-430 0c-15-2-14-10-20-17-65-82-109-186-91-291 13-75 52-142 101-200 0 0 46-10 11 34-64 83-104 187-75 292 16 59 49 111 87 157 0 0 7 26-13 25z m374-62c7-1 12-6 16-11 68-78 107-193 55-295-16-31-37-58-60-83 0 0-10-7-18-4-25 12 30 59 53 106 18 36 26 77 20 116-9 56-41 105-78 145 0 0-7 26 12 26z m-318 0c-7-1-12-6-16-11-68-78-107-193-55-295 16-31 37-58 61-83 0 0 9-7 17-4 25 12-30 59-53 106-18 36-26 77-20 116 9 56 41 105 78 145 0 0 7 26-12 26z m275-63c17-2 33-32 45-54 38-69 23-165-37-219-13-11-34 7-15 29 51 63 52 146-7 219-3 5-3 5-3 8-1 9 6 17 17 17z m-231 0c-18-2-34-32-46-54-38-69-22-165 37-219 13-11 34 7 15 29-51 63-52 146 7 219 3 5 3 5 3 8 1 9-6 17-16 17z" horiz-adv-x="1000" />

<glyph glyph-name="gateway" unicode="&#xe831;" d="M842 405l0 41c0 6 3 11 7 14l0 130c0 8 6 13 13 13 7 0 13-5 13-13l0-130c4-3 6-8 6-14l0-41 41 0c57 0 78-20 78-77l0-104c0-57-45-102-101-104l0-23-122 0 0 23-557 0 0-23-122 0 0 23c-55 4-98 48-98 104l0 104c0 57 21 77 78 77l44 0 0 41c0 6 3 11 7 14l0 130c0 8 5 13 13 13 7 0 13-5 13-13l0-130c4-3 6-8 6-14l0-41 681 0z m-461-184l0 100-293 0 0-100 293 0z m471 19c-18 0-32 14-32 31 0 17 14 31 32 31 17 0 31-14 31-31 0-17-14-31-31-31z m-95 0c-17 0-31 14-31 31 0 17 14 31 31 31 18 0 32-14 32-31 0-17-14-31-32-31z m-94 0c-18 0-32 14-32 31 0 17 14 31 32 31 17 0 31-14 31-31 0-17-14-31-31-31z m-301 1l-254 0 0 60 254 0 0-60z" horiz-adv-x="1000" />

<glyph glyph-name="dashboard" unicode="&#xe832;" d="M986 300l0 0c8 0 15-6 15-15 0 0 0 0 0 0l0-252c0 0 0 0 0 0 0-8-7-15-15-15 0 0 0 0 0 0l-451 0c0 0 0 0 0 0-8 0-15 7-15 15 0 0 0 0 0 0l0 252c0 0 0 0 0 0 0 9 7 15 15 15 0 0 0 0 0 0l451 0z m-528 381l0 0c8 0 15-7 15-15 0 0 0 0 0 0l0-632c0 0 0 0 0 0 0-8-7-15-15-15l-442 0c-9 0-15 7-15 15l0 632c0 8 6 15 15 15l442 0z m163-598c9 0 18 6 22 14 6 14-6 32-21 33-19 0-9 0-28 0-10 0-19-6-22-15-6-14 6-32 22-32l27 0z m297 47l-206 0c-1 0-3 0-4 0-3-1-6-2-9-4-15-9-12-33 2-41 3-1 5-2 11-2l206 0c1 0 2 0 3 0 6 1 11 4 15 8 12 15 1 38-16 39l-2 0z m-732 391l-60 0c0 0 0 0 0 0-8 0-15-6-15-14l0-380-61 0c-8 0-15-6-15-15 0-8 7-15 15-15l367 0c9 0 15 7 15 15 0 9-6 15-15 15l-63 0 0 220c0 0 0 0 0 0 0 8-7 15-15 15 0 0 0 0 0 0l-60 0c0 0 0 0 0 0-9 0-15-7-15-15l0-220-63 0 0 380c0 0 0 0 0 0 0 8-7 14-15 14l0 0z m435-336c9 1 18 6 22 15 6 14-6 32-21 33-19 0-9 0-28 0-10 0-19-6-22-15-6-15 6-32 22-33l27 0z m297 48l-206 0c-1 0-2 0-3 0-6-1-11-4-15-9-13-15 0-38 18-38l206 0c1 0 2 0 3 0 6 0 11 3 15 8 12 15 1 37-16 39l-2 0z m66 113l-448 0c-9 0-16 7-16 16l0 303c0 9 7 16 16 16l448 0c9 0 17-7 17-16l0-303c0-9-8-16-17-16z m-193 174l115 91c10 9 25 7 33-3 9-11 7-25-3-34l-136-108c-11-8-26-7-34 4-1 1-1 2-2 3l0 0-34 57-115-105c-10-9-25-9-34 1-9 10-8 25 2 33l136 125c4 4 10 6 16 6 8 0 16-4 20-11l36-59z" horiz-adv-x="1000" />

<glyph glyph-name="cog" unicode="&#xe833;" d="M571 350q0 59-41 101t-101 42-101-42-42-101 42-101 101-42 101 42 41 101z m286 61v-124q0-7-4-13t-11-7l-104-16q-10-30-21-51 19-27 59-77 6-6 6-13t-5-13q-15-21-55-61t-53-39q-7 0-14 5l-77 60q-25-13-51-21-9-76-16-104-4-16-20-16h-124q-8 0-14 5t-6 12l-16 103q-27 9-50 21l-79-60q-6-5-14-5-8 0-14 6-70 64-92 94-4 5-4 13 0 6 5 12 8 12 28 37t30 40q-15 28-23 55l-102 15q-7 1-11 7t-5 13v124q0 7 5 13t10 7l104 16q8 25 22 51-23 32-60 77-6 7-6 14 0 5 5 12 15 20 55 60t53 40q7 0 15-5l77-60q24 13 50 21 9 76 17 104 3 16 20 16h124q7 0 13-5t7-12l15-103q28-9 51-20l79 59q5 5 13 5 7 0 14-5 72-67 92-95 4-5 4-12 0-7-4-13-9-12-29-37t-30-40q15-28 23-54l102-16q7-1 12-7t4-13z" horiz-adv-x="857.1" />

<glyph glyph-name="plus" unicode="&#xe834;" d="M679 522l321 0 0-344-321 0 0-328-344 0 0 328-335 0 0 344 335 0 0 328 344 0 0-328z" horiz-adv-x="1000" />

<glyph glyph-name="signal-100" unicode="&#xe835;" d="M500 305c76 0 144-31 194-81l-65-64c-33 33-79 53-129 53-50 0-96-20-129-53l-64 64c49 50 117 81 193 81z m-322 48c86 86 200 134 322 134 122 0 236-48 322-134l-64-64c-69 68-160 107-258 107-97 0-189-39-258-107l-64 64z m570 266c77-32 145-78 203-137l-64-64c-104 103-241 160-387 160-146 0-283-57-387-160l-64 64c59 59 126 105 203 137 79 33 162 50 248 50 86 0 170-17 248-50z m-293-543c0-25 20-45 45-45 25 0 46 20 46 45 0 25-21 46-46 46-25 0-45-20-45-46z" horiz-adv-x="1000" />

<glyph glyph-name="signal-75" unicode="&#xe836;" d="M500 305c76 0 144-31 194-81l-65-64c-33 33-79 53-129 53-50 0-96-20-129-53l-64 64c49 50 117 81 193 81z m-322 48c86 86 200 134 322 134 122 0 236-48 322-134l-64-64c-69 68-160 107-258 107-97 0-189-39-258-107l-64 64z m277-277c0-25 20-45 45-45 25 0 46 20 46 45 0 25-21 46-46 46-25 0-45-20-45-46z" horiz-adv-x="1000" />

<glyph glyph-name="signal-50" unicode="&#xe837;" d="M500 305c76 0 144-31 194-81l-65-64c-33 33-79 53-129 53-50 0-96-20-129-53l-64 64c49 50 117 81 193 81z m-45-229c0-25 20-45 45-45 25 0 46 20 46 45 0 25-21 46-46 46-25 0-45-20-45-46z" horiz-adv-x="1000" />

<glyph glyph-name="signal-25" unicode="&#xe838;" d="M455 76c0-25 20-45 45-45 25 0 46 20 46 45 0 25-21 46-46 46-25 0-45-20-45-46z" horiz-adv-x="1000" />

<glyph glyph-name="cog-alt" unicode="&#xe839;" d="M500 350q0 59-42 101t-101 42-101-42-42-101 42-101 101-42 101 42 42 101z m429-286q0 29-22 51t-50 21-50-21-21-51q0-29 21-50t50-21 51 21 21 50z m0 572q0 29-22 50t-50 21-50-21-21-50q0-30 21-51t50-21 51 21 21 51z m-215-235v-103q0-6-4-11t-8-6l-87-14q-6-19-18-42 19-27 50-64 4-6 4-11 0-7-4-11-12-17-46-50t-43-33q-7 0-12 4l-64 50q-21-11-43-17-6-60-13-87-4-13-17-13h-104q-6 0-11 4t-5 10l-13 85q-19 6-42 18l-66-50q-4-4-11-4-6 0-12 4-80 75-80 90 0 5 4 10 5 8 23 30t26 34q-13 24-20 46l-85 13q-5 1-9 5t-4 11v104q0 5 4 10t9 6l86 14q7 19 18 42-19 27-50 64-4 6-4 11 0 7 4 12 12 16 46 49t44 33q6 0 12-4l64-50q19 10 43 18 6 60 13 86 3 13 16 13h104q6 0 11-4t6-10l13-85q19-6 42-17l65 49q5 4 12 4 6 0 11-4 81-75 81-90 0-4-4-10-7-9-24-30t-25-34q13-27 19-46l85-12q6-2 9-6t4-11z m357-298v-78q0-9-83-17-6-15-16-29 28-63 28-77 0-2-2-4-68-40-69-40-5 0-26 27t-29 37q-11-1-17-1t-17 1q-7-11-29-37t-25-27q-1 0-69 40-3 2-3 4 0 14 29 77-10 14-17 29-83 8-83 17v78q0 9 83 18 7 16 17 29-29 63-29 77 0 2 3 4 2 1 19 11t33 19 17 9q4 0 25-26t29-38q12 1 17 1t17-1q28 40 51 63l4 1q2 0 69-39 2-2 2-4 0-14-28-77 9-13 16-29 83-9 83-18z m0 572v-78q0-9-83-18-6-15-16-29 28-63 28-77 0-2-2-4-68-39-69-39-5 0-26 26t-29 38q-11-1-17-1t-17 1q-7-12-29-38t-25-26q-1 0-69 39-3 2-3 4 0 14 29 77-10 14-17 29-83 9-83 18v78q0 9 83 17 7 16 17 29-29 63-29 77 0 2 3 4 2 1 19 11t33 19 17 9q4 0 25-26t29-37q12 1 17 1t17-1q28 39 51 62l4 1q2 0 69-39 2-2 2-4 0-14-28-77 9-13 16-29 83-8 83-17z" horiz-adv-x="1071.4" />

<glyph glyph-name="lock" unicode="&#xe83a;" d="M179 421h285v108q0 59-42 101t-101 41-101-41-41-101v-108z m464-53v-322q0-22-16-37t-38-16h-535q-23 0-38 16t-16 37v322q0 22 16 38t38 15h17v108q0 102 74 176t176 74 177-74 73-176v-108h18q23 0 38-15t16-38z" horiz-adv-x="642.9" />

<glyph glyph-name="star" unicode="&#xe83b;" d="M929 489q0-12-15-27l-202-197 48-279q0-4 0-12 0-11-6-19t-17-9q-10 0-22 7l-251 132-250-132q-12-7-23-7-11 0-17 9t-6 19q0 4 1 12l48 279-203 197q-14 15-14 27 0 21 31 26l280 40 126 254q11 23 27 23t28-23l125-254 280-40q32-5 32-26z" horiz-adv-x="928.6" />

<glyph glyph-name="resize-full" unicode="&#xe83c;" d="M421 261q0-7-5-13l-185-185 80-81q10-10 10-25t-10-25-25-11h-250q-15 0-25 11t-11 25v250q0 15 11 25t25 11 25-11l80-80 186 185q5 6 12 6t13-6l64-63q5-6 5-13z m436 482v-250q0-15-10-25t-26-11-25 11l-80 80-185-185q-6-6-13-6t-13 6l-64 64q-5 5-5 12t5 13l186 185-81 81q-10 10-10 25t10 25 25 11h250q15 0 26-11t10-25z" horiz-adv-x="857.1" />

<glyph glyph-name="resize-small" unicode="&#xe83d;" d="M429 314v-250q0-14-11-25t-25-10-25 10l-81 81-185-186q-5-5-13-5t-12 5l-64 64q-6 6-6 13t6 13l185 185-80 80q-11 11-11 25t11 25 25 11h250q14 0 25-11t11-25z m421 375q0-7-6-12l-185-186 80-80q11-11 11-25t-11-25-25-11h-250q-14 0-25 11t-10 25v250q0 14 10 25t25 10 25-10l81-80 185 185q6 5 13 5t13-5l63-64q6-5 6-13z" horiz-adv-x="857.1" />

<glyph glyph-name="details" unicode="&#xe83e;" d="M214 189v-35q0-8-5-13t-13-5h-35q-7 0-13 5t-5 13v35q0 8 5 13t13 5h35q8 0 13-5t5-13z m0 143v-36q0-7-5-12t-13-5h-35q-7 0-13 5t-5 12v36q0 7 5 13t13 5h35q8 0 13-5t5-13z m0 143v-36q0-7-5-12t-13-6h-35q-7 0-13 6t-5 12v36q0 7 5 13t13 5h35q8 0 13-5t5-13z m643-286v-35q0-8-5-13t-13-5h-535q-8 0-13 5t-5 13v35q0 8 5 13t13 5h535q8 0 13-5t5-13z m0 143v-36q0-7-5-12t-13-5h-535q-8 0-13 5t-5 12v36q0 7 5 13t13 5h535q8 0 13-5t5-13z m0 143v-36q0-7-5-12t-13-6h-535q-8 0-13 6t-5 12v36q0 7 5 13t13 5h535q8 0 13-5t5-13z m72-393v464q0 8-6 13t-12 5h-822q-7 0-12-5t-6-13v-464q0-7 6-12t12-6h822q7 0 12 6t6 12z m71 607v-607q0-37-26-63t-63-26h-822q-36 0-63 26t-26 63v607q0 37 26 63t63 27h822q37 0 63-27t26-63z" horiz-adv-x="1000" />

<glyph glyph-name="pencil" unicode="&#xe83f;" d="M203-7l50 51-131 131-51-51v-60h72v-71h60z m291 518q0 12-12 12-5 0-9-4l-303-302q-4-4-4-10 0-12 13-12 5 0 9 4l303 302q3 4 3 10z m-30 107l232-232-464-465h-232v233z m381-54q0-29-20-50l-93-93-232 233 93 92q20 21 50 21 29 0 51-21l131-131q20-22 20-51z" horiz-adv-x="857.1" />

<glyph glyph-name="user" unicode="&#xe840;" d="M714 69q0-60-35-104t-84-44h-476q-49 0-84 44t-35 104q0 48 5 90t17 85 33 73 52 50 76 19q73-72 174-72t175 72q42 0 75-19t52-50 33-73 18-85 4-90z m-143 495q0-88-62-151t-152-63-151 63-63 151 63 152 151 63 152-63 62-152z" horiz-adv-x="714.3" />

<glyph glyph-name="users" unicode="&#xe841;" d="M331 350q-90-3-148-71h-75q-45 0-77 22t-31 66q0 197 69 197 4 0 25-11t54-24 66-12q38 0 75 13-3-21-3-37 0-78 45-143z m598-356q0-66-41-105t-108-39h-488q-68 0-108 39t-41 105q0 30 2 58t8 61 14 61 24 54 35 45 48 30 62 11q6 0 24-12t41-26 59-27 76-12 75 12 60 27 41 26 24 12q34 0 62-11t47-30 35-45 24-54 15-61 8-61 2-58z m-572 713q0-59-42-101t-101-42-101 42-42 101 42 101 101 42 101-42 42-101z m393-214q0-89-63-152t-151-62-152 62-63 152 63 151 152 63 151-63 63-151z m321-126q0-43-31-66t-77-22h-75q-57 68-147 71 45 65 45 143 0 16-3 37 37-13 74-13 33 0 67 12t54 24 24 11q69 0 69-197z m-71 340q0-59-42-101t-101-42-101 42-42 101 42 101 101 42 101-42 42-101z" horiz-adv-x="1071.4" />

<glyph glyph-name="eye" unicode="&#xe842;" d="M929 314q-85 132-213 197 34-58 34-125 0-103-73-177t-177-73-177 73-73 177q0 67 34 125-128-65-213-197 75-114 187-182t242-68 243 68 186 182z m-402 215q0 11-8 19t-19 7q-70 0-120-50t-50-119q0-11 8-19t19-8 19 8 8 19q0 48 34 82t82 34q11 0 19 8t8 19z m473-215q0-19-11-38-78-129-210-206t-279-77-279 77-210 206q-11 19-11 38t11 39q78 128 210 205t279 78 279-78 210-205q11-20 11-39z" horiz-adv-x="1000" />

<glyph glyph-name="edit" unicode="&#xe843;" d="M496 189l64 65-85 85-64-65v-31h53v-54h32z m245 402q-9 9-18 0l-196-196q-9-9 0-18t18 0l196 196q9 9 0 18z m45-331v-106q0-67-47-114t-114-47h-464q-67 0-114 47t-47 114v464q0 66 47 113t114 48h464q35 0 65-14 9-4 10-13 2-10-5-16l-27-28q-8-8-18-4-13 3-25 3h-464q-37 0-63-26t-27-63v-464q0-37 27-63t63-27h464q37 0 63 27t26 63v70q0 7 5 12l36 36q8 8 20 4t11-16z m-54 411l161-160-375-375h-161v160z m248-73l-51-52-161 161 51 52q16 15 38 15t38-15l85-85q16-16 16-38t-16-38z" horiz-adv-x="1000" />

<glyph glyph-name="org-struct" unicode="&#xe844;" d="M251 157c15 0 27-12 27-27l0-167c0-15-12-27-27-27l-223 0c-16 0-28 12-28 27l0 167c0 15 12 27 28 27l223 0z m722 0c15 0 27-12 27-27l0-167c0-15-12-27-27-27l-224 0c-15 0-27 12-27 27l0 167c0 15 12 27 27 27l224 0z m-361 0c15 0 27-12 27-27l0-167c0-15-12-27-27-27l-224 0c-15 0-27 12-27 27l0 167c0 15 12 27 27 27l224 0z m-87 221l337 0 2-1c12-2 22-11 22-24l0-157-49 0 0 133-312 0 0-133-49 0 0 133-312 0 0-133-49 0 0 157c0 13 11 24 24 25l337 0 0 126 49 0 0-126z m116 386c16 0 28-12 28-27l0-167c0-15-12-27-28-27l-282 0c-15 0-28 12-28 27l0 167c0 15 13 27 28 27l282 0z" horiz-adv-x="1000" />

<glyph glyph-name="loc-floor-plan" unicode="&#xe845;" d="M1000 46l-1000 0 0 382 41 0 0-47 99 0 0-41-99 0 0-253 279 0 0 253-46 0 0 41 194 0 0-41-108 0 0-253 280 0 0 253-41 0 0 41 193 0 0-41-111 0 0-253 278 0 0 526-918 0 0-52-41 0 0 93 1000 0 0-608z m-243 137l132 0 0-61-132 0 0 61z m-552 62l69 0 0-123-69 0 0 123z m196 48l66 0 0-89-66 0 0 89z m231 277l279 0 0-61-279 0 0 61z" horiz-adv-x="1000" />

<glyph glyph-name="loc-pin-map" unicode="&#xe846;" d="M824 219l-169 0c-8-16-16-31-24-47 2-11 6-21 10-31 34-65 134-74 208-65l32-67c-23-22-51-41-82-47-69-15-146-13-209 22-10 5-19 11-28 18-7 5-13 10-19 16-3-6-6-11-10-16l-2-4-8-14c17-14 35-27 55-38 64-34 141-37 214-25 43 7 77 26 106 52l40-84-568 0 0 222c12-3 24-8 35-14-10 17-20 35-30 53-2 1-3 1-5 1l0 10c-11 19-21 38-31 58l-163 0-176-369 1000 0-176 369z m-9-105c-43-1-91-1-124 26-12 10-17 26-21 40l129 0 31-65c-5-1-10-1-15-1z m-484-225l-269 0 72 151c5-1 10-1 14-1 60 2 101 60 159 73 8 2 16 3 24 3l0-226z m0 265c-46-2-85-22-122-47-17-11-36-26-56-28l48 101 130 0 0-26z m417 464c-7 87-62 168-141 207-34 17-72 25-111 25l-2 0 0 0c-88-2-172-53-216-128-12-23-22-48-27-75-16-91 23-191 64-285 52-118 114-232 181-342l1-3c6 10 12 20 18 29l0 1c4 6 8 14 14 22 68 115 129 233 177 357 24 62 47 126 42 192z m-250-119c-57 0-102 45-102 101 0 57 45 102 102 102 56 0 101-45 101-102 0-56-45-101-101-101z" horiz-adv-x="1000" />

<glyph glyph-name="sig-analog" unicode="&#xe847;" d="M620 77c-1-66-54-118-120-118-65 0-119 52-120 118l0 0 0 0c0 0 0 1 0 1 0 0 0 1 0 1 0 39 19 74 47 96l37 375c1 8 7 14 16 14l40 0c1 0 2 0 2 0 8-1 14-7 15-14l36-375c29-22 47-57 47-96 0 0 0-1 0-1 0 0 0-1 0-1l0 0 0 0z m-120 35c18 0 33-15 33-33 0-18-15-33-33-33-18 0-32 15-32 33 0 18 14 33 32 33z m-374-35l-103 0c-23 74-29 153-17 229l92-54c-3-59 6-119 28-175z m852 0l-104 0c23 56 32 117 28 176l92 54c12-77 6-156-16-230z m-934 358c2 5 5 10 7 15 24 47 55 90 92 127l51-88c-10-11-19-23-27-35-15-21-27-44-37-68l-86 49z m826-49c-10 24-23 48-37 69-9 13-19 26-30 38l51 87c38-37 71-81 95-130 3-5 5-10 7-14l-86-50z m-623 272c57 34 121 57 188 66l0-99c-49-9-96-26-139-51l-49 84z m453-82c-41 24-87 41-134 49l0 99c64-9 126-31 183-64l-49-84z" horiz-adv-x="1000" />

<glyph glyph-name="stop-bg" unicode="&#xe848;" d="M707 850l293-293 0-414-293-293-414 0-293 293 0 414 293 293 414 0z" horiz-adv-x="1000" />

<glyph glyph-name="warn-bg" unicode="&#xe849;" d="M922-94l-844 0c-5 0-6 0-10 0-47 7-82 62-63 108 2 5 3 5 5 9l422 732c16 25 43 40 73 39 26-2 49-16 63-39l422-732c2-4 3-4 5-9 18-44-13-101-62-108-5 0-6 0-11 0z" horiz-adv-x="1000" />

<glyph glyph-name="go-bg" unicode="&#xe84a;" d="M500 850c276 0 500-224 500-500 0-276-224-500-500-500-276 0-500 224-500 500 0 276 224 500 500 500z" horiz-adv-x="1000" />

<glyph glyph-name="asset-robot-tmpl" unicode="&#xe84b;" d="M843 852c7-1 29-5 42-22 0 0 10-12 11-26 3-28-17-56-45-61l-97-15-15-45 6-19 40-29 88 45c3 2 5 2 7 3 37 11 81-27 70-67-4-14-14-26-27-33l-117-60c-18-9-39-7-56 3l-26 18-57-16-3-1c-6-1-8-1-14 0l-1 0-175-205c0 0-17-15-34-10-3 1-3 1-6 2 0-1 0-1 0-2 0-8 0-15-1-22 0 0 6 1 6 1 3 0 4 0 7 0 6 0 13-3 18-7 3-2 3-2 5-4l194-233 234 0c0 0 15-2 24-11 5-6 8-14 8-22l0-139c-1-18-15-32-32-33l-814 0c-17 1-31 15-32 33l0 139c1 18 14 32 32 33l211 0-58 118c0 0-7 22 4 35 2 3 6 4 2 6-44 31-64 92-45 143 15 40 51 71 93 78 0 0-3 6-3 6-7 14-4 30 8 41l257 203c12 8 15 8 26 7 2-1 4 3 7 5l-6 21c-4 17 5 35 22 41l50 14 11 30c1 4 1 4 2 6 8 15 23 26 40 30 44 6 87 14 131 20 2 0 5 1 8 1z m-399-594c-27-66-108-105-178-79l-1 1 82-166-264 0 0-139 814 0 0 139-249 0-204 245c0 0 0-1 0-1z m-133 139c-41-1-79-32-87-73-8-40 16-84 54-100 42-18 95 3 115 44 25 54-15 128-80 129-1 0-1 0-2 0z m531 422c-1 0-2 0-3 0-43-6-86-14-129-20-8-2-15-8-18-15l-15-45-67-20 9-27 10 1c4 0 6 0 9-1 36-5 61-51 42-86-6-11-16-21-28-26 0 0-24-8-43-1-28 10-47 43-37 72 0 0-257-203-257-203 62 0 119-44 134-105l203 237 6-21 72 21 38-27c7-4 16-5 23-1l116 59c13 7 16 25 2 36-6 5-14 7-21 4l-105-54-66 46-12 41 25 73 116 18c14 3 23 23 14 35-4 6-11 9-18 9z m-214-148c-24 0-45-29-33-53 13-27 65-25 70 11 3 21-14 43-37 42z" horiz-adv-x="1000" />

<glyph glyph-name="trash-empty" unicode="&#xe84c;" d="M286 439v-321q0-8-5-13t-13-5h-36q-8 0-13 5t-5 13v321q0 8 5 13t13 5h36q8 0 13-5t5-13z m143 0v-321q0-8-5-13t-13-5h-36q-8 0-13 5t-5 13v321q0 8 5 13t13 5h36q8 0 13-5t5-13z m142 0v-321q0-8-5-13t-12-5h-36q-8 0-13 5t-5 13v321q0 8 5 13t13 5h36q7 0 12-5t5-13z m72-404v529h-500v-529q0-12 4-22t8-15 6-5h464q2 0 6 5t8 15 4 22z m-375 601h250l-27 65q-4 5-9 6h-177q-6-1-10-6z m518-18v-36q0-8-5-13t-13-5h-54v-529q0-46-26-80t-63-34h-464q-37 0-63 33t-27 79v531h-53q-8 0-13 5t-5 13v36q0 8 5 13t13 5h172l39 93q9 21 31 35t44 15h178q23 0 44-15t30-35l39-93h173q8 0 13-5t5-13z" horiz-adv-x="785.7" />

<glyph glyph-name="asset-motor-tmpl" unicode="&#xe84d;" d="M654 653c14-1 27-8 33-20l93 0c6 0 7-1 13-3l5 1c2 1 3 2 10 2l40 0c51 0 98-45 98-98l0-84 20 0c0 0 16-1 25-10 6-6 9-14 10-22 0-2 0-2 0-3l0-58c0-6-1-8-2-11-4-13-17-23-30-24-1 0-2 0-3 0l-20 0 0-84c0 0 0-19-6-33-13-38-51-65-92-65l-40 0c-4 0-8 1-12 2 0 0 25-20 26-44l0-19c-1-18-15-32-33-33l-503 0c-18 1-32 15-33 33l0 19c0 17 10 33 25 42 0 0-20 0-20 0-23 1-44 18-48 41 0 0-26 0-26 0-26 1-48 23-49 49l0 84-24 0c-8 0-16 3-22 8 0 0-54 0-54 0 0 0-8 0-14 3-12 5-21 17-22 30 0 1 0 2 0 3l0 56c0 7 1 9 2 13 5 13 17 22 31 24 1 0 2 0 3 0l54 0c0 0 12 8 23 8l23 0 0 82c0 0 1 10 4 18 7 18 25 31 46 31l25 1c0 0 5 20 18 30 9 7 20 11 31 11l108 1c0 0 3 5 7 8 7 7 17 11 27 11 84 0 168 1 253 0z m-342-504l0-34-10 0c-8 0-16-8-16-17l0-18 503 0 0 18c0 9-8 17-17 17l-9 0 0 34-451 0z m89 471c-4 0-8-3-8-7l0-13-134 0c-2 0-2 0-3 0-8-1-14-8-14-16-2-131 0-262 0-393 0-9 8-17 17-17l521 0 0 426-119 0c0 9 0 20-8 20-84 1-168 0-252 0z m407-20l0-426 40 0c34 0 65 29 66 65 0 98 0 197 0 296-1 34-30 65-65 65-14 1-28 0-41 0z m-623-41c-9 0-17-7-17-17-1-103 0-207 0-310 0-9 8-17 17-17l31 0 0 344-31 0z m516-312l-377 0 0 38 377 0 0-38z m0 79l-377 0 0 38 377 0 0-38z m-589 102c-5 0-6-9-6-9l-71 0c-4 0-4-1-4-4 0-18 0-37 0-55 0-3 2-5 4-5l71 0c0-4 2-8 6-8l27 0 0 81-27 0z m830-9l0-64c8 0 16 0 23 0 2 1 4 2 4 4 0 19 0 38 0 57-1 5-16 3-27 3z m-241-14l-377 0 0 38 377 0 0-38z m0 80l-377 0 0 38 377 0 0-38z" horiz-adv-x="1000" />

<glyph glyph-name="asset-add" unicode="&#xe84e;" d="M778 224l222 0 0-148-222 0 0-226-147 0 0 226-231 0 0 148 231 0 0 226 147 0 0-226z m-204-374l-574 0 0 147 277 0-86 174c17-7 34-10 53-10 38 0 73 15 99 39l0-124c0-3 0-4 1-7 2-20 16-38 35-46 5-2 7-3 17-4l4 0 174 0 0-169 0 0z m282 0l-21 0 0 0 0 147 21 0 0-147z m-615 549c52 0 94-42 94-94 0-52-42-95-94-95-52 0-95 43-95 95 0 52 43 94 95 94z m384 361l16 47c3 8 8 13 19 15l135 22c1 0 2 0 5 0 13-1 14-5 17-9 10-12 3-34-14-38l-122-19-27-76 13-43 69-48 111 56c22 9 49-26 21-42l-123-62c-7-4-17-4-24 1l-40 28-76-22-7 22-213-249c-16 63-73 110-141 110l271 215c-2-6-3-12-3-19 0-34 28-62 62-62 9 0 17 2 24 5l0 0c22 10 38 32 38 57 0 34-28 62-62 62l-11-1-8 29 70 21z m-51-71c22 0 39-18 39-40 0-21-17-39-39-39-22 0-39 18-39 39 0 22 17 40 39 40z" horiz-adv-x="1000" />

<glyph glyph-name="location-add" unicode="&#xe84f;" d="M779 224l221 0 0-148-221 0 0-226-148 0 0 226-231 0 0 148 231 0 0 226 147 0 0-226 1 0z m-205-356c-52-12-110-18-172-18-222 0-402 84-402 188 0 78 102 145 247 173l11-19 8-14c-113-20-192-65-192-116 0-71 147-128 328-128 63 0 122 7 172 19l0-85 0 0z m-171 982c-148 0-269-120-269-269 0-116 130-342 209-468l0 111c0 12 2 15 4 21 8 19 26 33 46 35 3 1 4 1 7 1l161 0c4 8 9 16 13 25l0 144 0 4c1 11 2 12 4 17 7 19 25 33 46 36 3 0 4 0 7 0l28 0c8 28 12 53 12 74 0 149-120 269-268 269z m-1-371c-52 0-95 43-95 95 0 52 43 95 95 95 52 0 95-43 95-95 0-52-43-95-95-95z" horiz-adv-x="1000" />

<glyph glyph-name="organization-add" unicode="&#xe850;" d="M778 224l222 0 0-148-222 0 0-226-147 0 0 226-231 0 0 148 231 0 0 226 147 0 0-226z m-303 538l86 0 0-481-129 0 0 26-43 0 0-27c-19-4-35-18-42-35 0-1-1-3-1-4l0 66-44 0 0-89 41 0 0-41-41 0 0-89 41 0 0-12c0-3 0-4 1-7 2-20 16-38 35-46 3-1 5-2 10-3l0-83 43 0 0 82 129 0 0-169-561 0 0 912 85 0 0 88 390 0 0-88z m436-912l-76 0 0 0 0 169 76 0 0-169z m-585 198l-91 0 0-198 91 0 0 198z m-154 0l-43 0 0-111 43 0 0 111z m87 129l-43 0 0-89 43 0 0 89z m-87 0l-43 0 0-89 43 0 0 89z m0 130l-43 0 0-89 43 0 0 89z m87 0l-43 0 0-89 43 0 0 89z m652-26l-76 0 0 169c0 3 0 4 0 7-1 11-6 21-13 29l0 16-19 0c-1 0-2 1-4 1-4 2-6 3-17 4l-4 0-147 0c-3 0-4 0-7 0-6-1-12-3-17-5l-2 0 0 89 306 0 0-310z m-739 156l-43 0 0-90 43 0 0 90z m87 0l-43 0 0-90 43 0 0 90z m87 0l-44 0 0-90 44 0 0 90z m86 0l-43 0 0-90 43 0 0 90z m-260 129l-43 0 0-89 43 0 0 89z m87 0l-43 0 0-89 43 0 0 89z m87 0l-44 0 0-89 44 0 0 89z m86 0l-43 0 0-89 43 0 0 89z m-260 110l-43 0 0-44 43 0 0 44z m87 0l-43 0 0-44 43 0 0 44z m87 0l-44 0 0-44 44 0 0 44z m86 0l-43 0 0-44 43 0 0 44z" horiz-adv-x="1000" />

<glyph glyph-name="asset-tmpl-add" unicode="&#xe851;" d="M574-158l-541 0c-18 1-32 15-33 33l0 139c1 18 15 32 33 33l211 0-59 118c0 0-7 22 4 35 2 3 6 4 3 6-44 31-64 92-46 143 15 40 51 71 94 78 0 0-4 6-4 6-6 14-3 30 9 41l257 203c11 8 14 8 25 7 2-1 5 3 8 5l-6 21c-5 17 5 35 22 41l50 14 10 30c1 4 2 4 3 6 7 15 22 26 40 30 43 6 86 14 130 20 3 0 6 1 8 1 8-1 30-5 43-22 0 0 9-12 10-26 4-28-16-56-44-61l-97-15-16-45 6-19 41-29 88 45c3 2 4 2 7 3 36 11 80-27 69-67-4-14-14-26-27-33l-117-60c-18-9-39-7-55 3l-26 18-58-16-3-1c-6-1-7-1-13 0l-1 0-176-205c0 0-17-15-34-10-2 1-3 1-6 2 0-1 1-1 1-2 0-8-1-15-2-22 0 0 6 1 6 1 3 0 4 0 7 0 7 0 13-3 19-7 1-1 2-2 3-3l-17 0c-3 0-4 0-7-1-20-2-38-16-46-35-2-6-4-9-4-21l0-27c-36-26-85-34-128-18l-1 1 82-166-263 0 0-139 541 0 0-25c0-3 0-4 0-7l0-1z m272 0l-11 0c0 1 0 3 0 4l0 4 0 25 11 0 0 139-11 0 0 5 43 0c0-1 0-3 0-5l0-139c0-18-14-32-32-33z m-68 382l222 0 0-148-222 0 0-226-147 0 0 226-231 0 0 148 231 0 0 226 147 0 0-226z m-516 173l-1 0c-41-1-80-32-88-73-8-40 16-84 54-100 42-18 96 3 115 44 26 54-15 128-80 129z m529 422c-1 0-2 0-3 0-43-6-86-14-129-20-8-2-14-8-17-15l-16-45-66-20 8-27 10 1c5 0 6 0 9-1 36-5 61-51 43-86-7-11-17-21-29-26 0 0-24-8-43-1-28 10-46 43-36 72 0 0-257-203-257-203 61 0 118-44 134-105l202 237 6-21 72 21 39-27c6-4 15-5 23-1l116 59c12 7 15 25 2 36-6 5-14 7-21 4l-106-54-66 46-12 41 25 73 116 18c15 3 24 23 14 35-4 6-11 9-18 9z m-214-148c-24 0-44-29-33-53 14-27 66-25 71 11 3 21-15 43-38 42z" horiz-adv-x="1000" />

<glyph glyph-name="calendar" unicode="&#xe852;" d="M71-79h161v161h-161v-161z m197 0h178v161h-178v-161z m-197 197h161v178h-161v-178z m197 0h178v178h-178v-178z m-197 214h161v161h-161v-161z m411-411h179v161h-179v-161z m-214 411h178v161h-178v-161z m428-411h161v161h-161v-161z m-214 197h179v178h-179v-178z m-196 482v161q0 7-6 12t-12 6h-36q-7 0-12-6t-6-12v-161q0-7 6-13t12-5h36q7 0 12 5t6 13z m410-482h161v178h-161v-178z m-214 214h179v161h-179v-161z m214 0h161v161h-161v-161z m18 268v161q0 7-5 12t-13 6h-35q-7 0-13-6t-5-12v-161q0-7 5-13t13-5h35q8 0 13 5t5 13z m215 36v-715q0-29-22-50t-50-21h-786q-29 0-50 21t-21 50v715q0 29 21 50t50 21h72v54q0 37 26 63t63 26h36q37 0 63-26t26-63v-54h214v54q0 37 27 63t63 26h35q37 0 64-26t26-63v-54h71q29 0 50-21t22-50z" horiz-adv-x="928.6" />

<glyph glyph-name="org-company" unicode="&#xe853;" d="M955-150l-305 0 0 88 43 0 0 43-43 0 0 43 43 0 0 44-43 0 0 43 43 0 0 44-43 0 0 43 43 0 0 43-43 0 0 44 43 0 0 43-43 0 0 44 43 0 0 43-43 0 0 43 43 0 0 44-43 0 0 89 305 0 0-741z m-435 912l86 0 0-912-561 0 0 912 85 0 0 88 390 0 0-88z m-149-714l-91 0 0-198 91 0 0 198z m106 0l-43 0 0-111 43 0 0 111z m-260 0l-43 0 0-111 43 0 0 111z m563-67l-43 0 0-43 43 0 0 43z m87 0l-43 0 0-43 43 0 0 43z m-87 87l-43 0 0-44 43 0 0 44z m87 0l-43 0 0-44 43 0 0 44z m-650 109l-43 0 0-89 43 0 0 89z m87 0l-44 0 0-89 44 0 0 89z m86 0l-43 0 0-89 43 0 0 89z m87 0l-43 0 0-89 43 0 0 89z m390-22l-43 0 0-44 43 0 0 44z m-87 0l-43 0 0-44 43 0 0 44z m87 86l-43 0 0-43 43 0 0 43z m-87 0l-43 0 0-43 43 0 0 43z m-563 66l-43 0 0-89 43 0 0 89z m87 0l-44 0 0-89 44 0 0 89z m86 0l-43 0 0-89 43 0 0 89z m87 0l-43 0 0-89 43 0 0 89z m390 21l-43 0 0-43 43 0 0 43z m-87 0l-43 0 0-43 43 0 0 43z m-563 109l-43 0 0-90 43 0 0 90z m87 0l-44 0 0-90 44 0 0 90z m86 0l-43 0 0-90 43 0 0 90z m87 0l-43 0 0-90 43 0 0 90z m303-22l-43 0 0-43 43 0 0 43z m87 0l-43 0 0-43 43 0 0 43z m-87 87l-43 0 0-44 43 0 0 44z m87 0l-43 0 0-44 43 0 0 44z m-650 64l-43 0 0-89 43 0 0 89z m87 0l-44 0 0-89 44 0 0 89z m86 0l-43 0 0-89 43 0 0 89z m87 0l-43 0 0-89 43 0 0 89z m-260 110l-43 0 0-44 43 0 0 44z m87 0l-44 0 0-44 44 0 0 44z m86 0l-43 0 0-44 43 0 0 44z m87 0l-43 0 0-44 43 0 0 44z" horiz-adv-x="1000" />

<glyph glyph-name="loc-factory" unicode="&#xe854;" d="M893 256l71 0 0-139 36 0 0-244-1000 0 0 244 68 0 0 139 0 130 0 0 1 0 194 138 0-138 1 0 195 138 0-138 0 0 195 138 0-268 55 0 35 465 114 0 35-465z m-570-36l-156 0 0-141 156 0 0 141z m262 0l-156 0 0-141 156 0 0 141z m261 0l-156 0 0-141 156 0 0 141z m-158 569c15 14 32 38 58 38 34 0 55-22 57-58-14 19-32 32-60 32-20 0-35-10-48-22-15-16-27-43-58-43-35 0-63 29-63 65 11-18 35-31 63-31 20 0 37 7 51 19z" horiz-adv-x="1000" />

<glyph glyph-name="phone" unicode="&#xe855;" d="M786 158q0-15-6-39t-12-38q-11-28-68-60-52-28-103-28-15 0-30 2t-32 7-26 8-31 11-28 10q-54 20-97 47-71 44-148 120t-120 148q-27 43-46 97-2 5-10 28t-12 31-8 26-7 32-2 29q0 52 29 104 31 57 59 68 14 6 38 12t39 6q8 0 12-2 10-3 30-42 6-11 16-31t20-35 17-30q2-2 10-14t12-20 4-16q0-11-16-27t-35-31-34-30-16-25q0-5 3-13t4-11 8-14 7-10q42-77 97-132t131-97q1 0 10-6t14-8 11-5 13-2q10 0 25 16t30 34 31 35 28 16q7 0 15-4t20-12 14-10q14-8 30-17t36-20 30-17q39-19 42-29 2-4 2-12z" horiz-adv-x="785.7" />

<glyph glyph-name="critical" unicode="&#xe856;" d="M707 850l-414 0-293-293 0-414 293-293 414 0 293 293 0 414-293 293z m246-687l-265-265-375 0-265 265 0 375 265 265 375 0c88-88 177-177 265-265l0-375z m-403 188c0 16 0 31 1 43 1 11 3 21 5 29 3 7 6 13 11 16 4 3 10 5 18 5 7 0 13-2 18-5 5-3 8-9 11-16 2-8 4-18 5-29 0-12 1-27 1-43 0-17-1-32-1-44-1-12-3-21-5-29-3-7-6-13-11-16-5-3-11-5-18-5-8 0-14 2-18 5-5 3-8 9-11 16-2 8-4 17-5 29-1 12-1 27-1 44z m224 12l-22 0 0 76 21 0c12 0 22-3 27-10 5-6 8-16 8-29 0-13-3-22-9-28-6-6-15-9-25-9z m-107 389l-333 0-235-235 0-333 235-235 333 0 235 235 0 333-235 235z m-381-513c-15-12-37-18-64-18-29 0-50 6-62 18-12 13-19 31-19 54l0 10 51 0 0-7c0-6 1-11 2-16 1-5 2-9 5-12 3-4 6-6 10-8 5-2 10-3 17-3 8 0 15 2 21 8 6 5 9 12 9 23 0 6 0 11-2 15-2 4-4 8-8 11-3 3-8 6-14 9-5 3-12 5-21 8-11 4-21 8-29 12-8 5-15 10-21 16-5 6-10 13-12 21-3 8-4 17-4 27 0 25 7 44 21 56 14 12 33 19 57 19 11 0 22-2 31-4 10-3 18-7 25-12 7-6 12-13 16-21 4-9 6-19 6-31l0-7-49 0c0 12-2 21-6 27-4 7-11 10-21 10-6 0-11-1-14-2-4-2-7-4-9-7-3-3-4-6-5-9-1-4-1-7-1-11 0-8 2-14 5-20 3-5 10-10 21-14l39-17c10-5 18-9 24-14 6-4 11-9 15-14 3-6 6-12 7-18 2-6 2-13 2-21 0-27-7-46-23-58z m196 196l-55 0 0-211-51 0 0 211-55 0 0 42 161 0 0-42 0 0z m186-137c-2-16-6-30-12-42-6-11-14-20-26-26-11-6-26-9-45-9-19 0-34 3-46 9-11 6-20 15-26 26-6 12-10 26-11 42-2 16-3 33-3 53 0 19 1 36 3 52 1 16 5 30 11 42 6 11 15 20 26 27 12 6 27 10 46 10 19 0 34-4 45-10 12-7 20-16 26-27 6-12 10-26 12-42 2-16 3-33 3-52 0-20-1-37-3-53z m185 69c-4-10-9-17-16-24-7-6-15-10-25-13-10-3-21-5-33-5l-27 0 0-101-51 0 0 253 89 0c13 0 24-3 32-7 9-4 16-10 22-17 5-7 9-15 11-24 3-9 4-19 4-28 0-13-2-24-6-34z" horiz-adv-x="1000" />

<glyph glyph-name="warn" unicode="&#xe857;" d="M991 21l-422 733c-14 22-41 39-65 39-30 0-56-15-72-39l-422-733c-1-2-2-3-3-5-24-49 18-111 71-113l845 0c0 0 4 0 8 1 55 5 85 71 60 117z m-61-50c-2-1-2-2-8-3l-843 0-3 1c-8 1-13 13-9 20l421 731c0 0 7 7 13 8 1 0 9-3 12-8 156-234 281-487 421-731l2-2c2-5-2-12-6-16z m-429 656c-116-200-232-401-348-601l695 0-347 601z m-51-165c5 9 12 16 21 22 10 5 19 8 29 8 10 0 20-3 29-9 10-5 17-12 22-22 6-9 8-19 8-29 0-8-1-19-3-31-10-60-17-106-20-137-3-24-4-28-5-58l-60 0c-3 49-6 60-8 76l-19 126c-2 10-2 18-2 24 0 11 2 21 8 30z m92-387c-11-12-25-17-42-17-16 0-30 5-41 17-11 11-17 25-17 41 0 16 6 30 17 42 11 11 25 17 41 17 17 0 31-6 42-17 11-12 17-26 17-42 0-16-6-30-17-41z" horiz-adv-x="1000" />

<glyph glyph-name="loc-pin-floor-plan" unicode="&#xe858;" d="M922-150l-798 0 0 277 33 0 0-35 79 0 0-29-79 0 0-184 222 0 0 145c1 1 1 1 1 1l-1-2 4 7c5 8 12 19 12 19 9 15 17 29 25 43l77 0 0-29-85 0 0-184 223 0 0 184-33 0 0 29 154 0 0-29-89 0 0-184 223 0 0 381-381 0c5 10 9 20 14 29l399 0 0-439z m-88 55l-106 0 0 44 106 0 0-44z m-491 0l-55 0 0 88 7 0 0 0c11-14 31-19 48-13l0-75z m154 59l-52 0 0 64 52 0 0-64z m354 221l-222 0 0 44 222 0 0-44z m-694 37l-33 0 0 67 9 0c8-16 16-33 24-49l0-18z m422 396c-7 87-62 168-141 207-34 17-73 25-111 25l-2 0-1 0c-87-2-171-53-215-128-13-23-22-48-27-75-16-91 23-191 63-285 52-118 115-232 181-342l2-3c5 8 10 16 15 24l0 2 0 0 3 3-1 1c4 6 9 14 14 22l1 1c20 33 40 67 58 100l-1 0c33 61 65 124 92 189l1 0c3 7 5 14 8 21l0 0c7 15 13 30 19 46 24 62 47 126 42 192z m-251-119c-56 0-101 45-101 101 0 57 45 102 101 102 57 0 102-45 102-102 0-56-45-101-102-101z" horiz-adv-x="1000" />

<glyph glyph-name="info" unicode="&#xe859;" d="M973 515c-69 200-266 335-471 336-2 0-4 0-7 0-154-2-305-79-397-203-111-148-128-354-49-516 84-172 267-284 453-283 159 1 313 81 405 209 94 131 119 306 66 457z m-55-291c-56-183-234-310-419-310-166 1-322 102-392 248-82 171-37 382 96 506 79 75 187 117 296 118 2 0 4 0 6 0 110-1 216-45 295-120 119-112 163-289 118-442z m-418 512c-212 0-385-173-385-386 0-213 173-386 385-386 213 0 386 173 386 386 0 213-173 386-386 386z m-42-108c14 13 30 20 50 20 19 0 35-7 49-20 14-14 21-31 21-50 0-20-7-37-21-51-14-13-30-20-49-20-20 0-36 7-50 21-14 14-21 31-21 50 0 19 7 36 21 50z m171-566l-248 0 0 93 62 0 0 215-62 0 0 94 189 0 0-309 59 0 0-93z" horiz-adv-x="1000" />

<glyph glyph-name="location" unicode="&#xe85a;" d="M656 211c145-28 246-95 246-173 0-104-180-188-402-188-222 0-402 84-402 188 0 78 102 145 246 173l11-19 9-14c-114-20-192-65-192-116 0-71 147-128 328-128 181 0 328 57 328 128 0 51-78 96-192 116l13 22 7 11z m-155-190c0 0 268 392 268 560 0 149-120 269-268 269-149 0-269-120-269-269 0-168 269-560 269-560z m-1 648c52 0 94-43 94-95 0-52-42-95-94-95-53 0-95 43-95 95 0 52 42 95 95 95z" horiz-adv-x="1000" />

<glyph glyph-name="loc-pin-factory" unicode="&#xe85b;" d="M727 443c12 9 25 24 44 24 26 0 42-14 44-37-11 12-24 20-46 21-15 0-26-7-36-15-12-10-21-28-45-28-26 0-47 19-47 42 8-11 26-19 47-19 16 0 29 4 39 12z m211-435l0 90-55 0-27 301-86 0-27-301-41 0 0 173-149-89 0 0 0 89-103-62c-10-19-20-38-30-57l-2-5c-14-24-27-49-42-73l73 0 0-91-119 0 0 15 0 0-45-74-43 70c-3 5-6 9-8 14l-31 0 0-158 762 0 0 158-27 0z m-289-25l-119 0 0 91 119 0 0-91z m199 0l-119 0 0 91 119 0 0-91z m-313 635c-6 87-61 168-140 207-34 17-73 25-111 25l-2 0-1 0c-87-2-171-53-215-128-13-23-22-48-27-75-16-91 23-191 63-285 52-118 114-232 181-342l2-3c5 8 10 16 14 24l1 2 0 0 3 3-1 1c4 6 9 14 14 22l1 1c20 33 39 67 58 100l-1 0c33 61 65 124 92 189l0 0c3 7 6 14 9 21l0 0c7 15 13 30 19 46 23 62 46 126 41 192z m-250-119c-56 0-101 45-101 101 0 57 45 102 101 102 57 0 102-45 102-102 0-56-45-101-102-101z" horiz-adv-x="1000" />

<glyph glyph-name="star-empty" unicode="&#xe85c;" d="M635 290l170 166-235 34-106 213-105-213-236-34 171-166-41-235 211 111 211-111z m294 199q0-12-15-27l-202-197 48-279q0-4 0-12 0-28-23-28-10 0-22 7l-251 132-250-132q-12-7-23-7-11 0-17 9t-6 19q0 4 1 12l48 279-203 197q-14 15-14 27 0 21 31 26l280 40 126 254q11 23 27 23t28-23l125-254 280-40q32-5 32-26z" horiz-adv-x="928.6" />

<glyph glyph-name="mail" unicode="&#xe85d;" d="M929 11v428q-18-20-39-36-149-115-238-189-28-24-46-37t-48-28-57-13h-2q-26 0-57 13t-48 28-46 37q-88 74-238 189-21 16-39 36v-428q0-7 6-13t12-5h822q7 0 12 5t6 13z m0 586v14t-1 7-1 7-3 5-5 4-8 2h-822q-7 0-12-6t-6-12q0-94 83-159 107-84 223-176 4-3 20-17t25-21 25-17 28-16 24-5h2q11 0 24 5t28 16 25 17 25 21 20 17q116 92 224 176 30 24 56 65t26 73z m71 21v-607q0-37-26-63t-63-27h-822q-36 0-63 27t-26 63v607q0 37 26 63t63 26h822q37 0 63-26t26-63z" horiz-adv-x="1000" />

<glyph glyph-name="flow-solid" unicode="&#xe85e;" d="M400-150l-400 0 0 400 168 0 0 106-32-31c0 0-11-11-24-10-24 1-41 34-23 54 1 1 1 1 1 2l82 81c-17 2-33 7-49 13-64 27-112 89-121 158-12 85 38 174 116 209 26 12 55 18 83 18 92-1 177-71 195-161 1-3 1-5 2-8l121 0-31 31c0 0-10 11-10 25 2 24 35 40 55 22 0 0 0 0 1-1l83-83 183 183c69-69 139-139 208-208l-174-174 0-130 31 30c3 4 8 7 13 8 32 10 52-33 33-54l-83-82 0 0c81-13 152-78 168-159 13-65-9-137-57-183-56-54-143-71-216-41-64 27-112 89-121 158-12 85 38 174 116 209 18 8 37 14 56 16l-82 82c-1 1-1 1-1 1-18 21-2 53 22 55 14 0 25-10 25-10l31-31 0 128-150 151c-1-1-2-1-3-2l-82-83c-21-19-64 1-54 33 1 5 4 10 8 13l30 31-121 0c-8-42-28-81-58-110-30-29-70-48-112-53l82-82c20-21 0-64-33-54-5 1-9 4-13 8l-30 30 0-105 167 0 0-400z" horiz-adv-x="1000" />

<glyph glyph-name="flow-outline" unicode="&#xe85f;" d="M397 616c-8-41-28-81-58-110-30-29-70-48-112-53l82-82c20-21 0-64-33-54-5 1-9 4-13 8l-30 30 0-105 167 0 0-400-400 0 0 400 168 0 0 106-32-31c0 0-11-11-24-10-24 1-41 34-23 54 1 1 1 1 1 2l82 81c-17 2-33 7-49 13-64 27-112 89-121 158-12 85 38 174 116 209 26 12 55 18 83 18 92-1 177-71 195-161 1-3 1-5 2-8l121 0-31 31c0 0-10 11-10 25 2 24 35 40 55 22 0 0 0 0 1-1l83-83 183 183c69-69 139-139 208-208l-174-174 0-130 31 30c3 4 8 7 13 8 32 10 52-33 33-54l-83-82 0 0c81-13 152-78 168-159 13-65-9-137-57-183-56-54-143-71-216-41-64 27-112 89-121 158-12 85 38 174 116 209 18 8 37 14 56 16l-82 82c-1 1-1 1-1 1-18 21-2 53 22 55 14 0 25-10 25-10l31-31 0 128-150 151c-1-1-2-1-3-2l-82-83c-21-19-64 1-54 33 1 5 4 10 8 13l30 31-121 0z m402-431c-62-1-119-48-131-109-17-84 62-178 158-159 55 11 100 59 108 115 10 73-50 149-128 153-2 0-5 0-7 0z m-734 0l0-270 270 0 0 270-270 0z m134 600c-60-1-117-46-131-105-19-85 60-181 157-163 54 10 100 57 108 112 12 75-49 154-130 156-1 0-3 0-4 0z m485-135l116-116 116 116-116 116c-39-39-77-77-116-116z" horiz-adv-x="1000" />

<glyph glyph-name="threshold" unicode="&#xe860;" d="M978-62c12 0 22-10 22-22l0-44c0-12-10-22-22-22l-109 0c-13 0-23 10-23 22l0 44c0 12 10 22 23 22l109 0z m-635 0c12 0 22-10 22-22l0-44c0-12-10-22-22-22l-109 0c-12 0-22 10-22 22l0 44c0 12 10 22 22 22l109 0z m-211 0c12 0 22-10 22-22l0-44c0-12-10-22-22-22l-110 0c-12 0-22 10-22 22l0 44c0 12 10 22 22 22l110 0z m423 0c12 0 22-10 22-22l0-44c0-12-10-22-22-22l-110 0c-12 0-22 10-22 22l0 44c0 12 10 22 22 22l110 0z m211 0c13 0 23-10 23-22l0-44c0-12-10-22-23-22l-109 0c-12 0-22 10-22 22l0 44c0 12 10 22 22 22l109 0z m-621 743c44-1 78-44 96-80 67-141 72-312 128-451 8-22 17-47 35-57 13-7 28 9 36 25 22 49 35 106 91 130 32 14 71 7 100 28l0 0c5 5 10 11 14 17 4 4 7 8 10 12 40 60 48 136 60 205 9 53 19 111 63 145 30 25 72 32 109 15 57-27 90-89 111-141 0 0 4-17-1-29-11-25-53-28-66-2-18 37-31 78-69 102-16 10-38 4-50-15-24-39-25-89-33-137-14-81-37-163-95-222-14-15-47-31-82-37-22-4-45-5-59-22-33-42-33-111-87-138-39-20-88-10-118 26-34 41-49 95-64 148-30 107-46 218-83 326-10 27-19 57-40 75-1 1-1 1-2 2-11 7-30-5-44-22-16-22-27-48-32-75l0-3c-1-3-2-4-3-7-13-25-57-26-68 5-6 19 4 41 12 63 21 54 58 107 120 113 3 1 7 1 11 1z m58-376l-180 0c-13 0-23 10-23 22l0 46c0 12 10 22 23 22l159 0c7-30 14-60 21-90z m774 0l-190 0c11 29 19 60 26 90l164 0c13 0 23-10 23-22l0-46c0-12-10-22-23-22z m-391 0l-217 0c-7 30-14 60-21 90l300 0c-8-26-19-51-36-73-4-4-6-9-10-11-1-1-1-1-1-1-5-2-9-4-15-5z m-243 545c12 0 22-10 22-22l0-45c0-12-10-22-22-22l-109 0c-12 0-22 10-22 22l0 45c0 12 10 22 22 22l109 0z m423 0c13 0 22-10 22-22l0-45c0-12-9-22-22-22l-109 0c-12 0-22 10-22 22l0 45c0 12 10 22 22 22l109 0z m-635 0c13 0 23-10 23-22l0-45c0-12-10-22-23-22l-109 0c-12 0-22 10-22 22l0 45c0 12 10 22 22 22l109 0z m847 0c12 0 22-10 22-22l0-45c0-12-10-22-22-22l-109 0c-13 0-23 10-23 22l0 45c0 12 10 22 23 22l109 0z m-423 0c12 0 22-10 22-22l0-45c0-12-10-22-22-22l-110 0c-12 0-22 10-22 22l0 45c0 12 10 22 22 22l110 0z" horiz-adv-x="1000" />

<glyph glyph-name="globe" unicode="&#xe861;" d="M429 779q116 0 215-58t156-156 57-215-57-215-156-156-215-58-216 58-155 156-58 215 58 215 155 156 216 58z m153-291q-2-1-6-5t-7-6q1 0 2 3t3 6 2 4q3 4 12 8 8 4 29 7 19 5 29-6-1 1 5 7t8 7q2 1 8 3t9 4l1 12q-7-1-10 4t-3 12q0-2-4-5 0 4-2 5t-7-1-5-1q-5 2-8 5t-5 9-2 8q-1 3-5 6t-5 6q-1 1-2 3t-1 4-3 3-3 1-4-3-4-5-2-3q-2 1-4 1t-2-1-3-1-3-2q-1-2-4-2t-5-1q8 3-1 6-5 2-9 2 6 2 5 6t-5 8h3q-1 2-5 5t-10 5-7 3q-5 3-19 5t-18 1q-3-4-3-6t2-8 2-7q1-3-3-7t-3-7q0-4 7-9t6-12q-2-4-9-9t-9-6q-3-5-1-11t6-9q1-1 1-2t-2-3-3-2-4-2l-1-1q-7-3-12 3t-7 15q-4 14-9 17-13 4-16-1-3 7-23 15-14 5-33 2 4 0 0 8-4 9-10 7 1 3 2 10t0 7q2 8 7 13 1 1 4 5t5 7 1 4q19-3 28 6 2 3 6 9t6 10q5 3 8 3t8-3 8-3q8-1 8 6t-4 11q7 0 2 10-2 4-5 5-6 2-15-3-4-2 2-4-1 0-6-6t-9-10-9 3q0 0-3 7t-5 8q-5 0-9-9 1 5-6 9t-14 4q11 7-4 15-4 3-12 3t-11-2q-2-4-3-7t3-4 6-3 6-2 5-2q8-6 5-8-1 0-5-2t-6-2-4-2q-1-3 0-8t-1-8q-3 3-5 10t-4 9q4-5-14-3l-5 0q-3 0-9-1t-12-1-7 5q-3 4 0 11 0 2 2 1-2 2-6 5t-6 5q-25-8-52-23 3 0 6 1 3 1 8 4t5 3q19 7 24 4l3 2q7-9 11-14-4 3-17 1-11-3-12-7 4-6 2-10-2 2-6 6t-8 6-8 3q-9 0-13-1-81-45-131-124 4-4 7-4 2-1 3-5t1-6 6 1q5-4 2-10 1 0 25-15 10-10 11-12 2-6-5-10-1 1-5 5t-5 2q-2-3 0-10t6-7q-4 0-5-9t-2-20 0-13l1-1q-2-6 3-19t12-11q-7-1 11-24 3-4 4-5 2-1 7-4t9-6 5-5q2-3 6-13t8-13q-2-3 5-11t6-13q-1 0-2-1t-1 0q2-4 9-8t8-7q1-2 1-6t2-6 4-1q2 11-13 35-8 13-9 16-2 2-4 8t-2 8q1 0 3 0t5-2 4-3 1-1q-1-4 1-10t7-10 10-11 6-7q4-4 8-11t0-8q5 0 11-5t10-11q3-5 4-15t3-13q1-4 5-8t7-5l9-5t7-3q3-2 10-6t12-7q6-2 9-2t8 1 8 2q8 1 16-8t12-12q20-10 30-6-1 0 1-4t4-9 5-8 3-5q3-3 10-8t10-8q4 2 4 5-1-5 4-11t10-6q8 2 8 18-17-8-27 10 0 0-2 3t-2 5-1 4 0 5 2 1q5 0 6 2t-1 7-2 8q-1 4-6 11t-7 8q-3-5-9-4t-9 5q0-1-1-3t-1-4q-7 0-8 0 1 2 1 10t2 13q1 2 3 6t5 9 2 7-3 5-9 1q-11 0-15-11-1-2-2-6t-2-6-5-4q-4-2-14-1t-13 3q-8 4-13 16t-5 20q0 6 1 15t2 14-3 14q2 1 5 5t5 6q2 1 3 1t3 0 2 1 1 3q0 1-2 2-1 1-2 1 4-1 16 1t15-1q9-6 12 1 0 1-1 6t0 7q3-15 16-5 2-1 9-3t9-2q2-1 4-3t3-3 3 0 5 4q5-8 7-13 6-23 10-25 4-2 6-1t3 5 0 8-1 7l-1 5v10l0 4q-8 2-10 7t0 10 9 10q0 1 4 2t9 4 7 4q12 11 8 20 4 0 6 5 0 0-2 2t-5 2-2 2q5 2 1 8 3 2 4 7t4 5q5-6 12-1 5 5 1 9 2 4 11 6t10 5q4-1 5 1t0 7 2 7q2 2 9 5t7 2l9 7q2 2 0 2 10-1 18 6 5 6-4 11 2 4-1 5t-9 4q2 0 7 0t5 1q9 5-3 9-10 2-24-7z m-91-490q115 21 195 106-1 2-7 2t-7 2q-10 4-13 5 1 4-1 7t-5 5-7 5-6 4q-1 1-4 3t-4 3-4 2-5 2-5-1l-2-1q-2 0-3-1t-3-2-2-1 0-2q-12 10-20 13-3 0-6 3t-6 4-6 0-6-3q-3-3-4-9t-1-7q-4 3 0 10t1 10q-1 3-6 2t-6-2-7-5-5-3-4-3-5-5q-2-2-4-6t-2-6q-1 2-7 3t-5 3q1-5 2-19t3-22q4-17-7-26-15-14-16-23-2-12 7-14 0-4-5-12t-4-12q0-3 2-9z" horiz-adv-x="857.1" />

<glyph glyph-name="go" unicode="&#xe862;" d="M502 850c204-1 401-136 470-335 53-151 28-326-66-457-92-127-246-208-404-208-186-1-369 111-452 282-79 162-62 367 49 516 91 124 242 200 396 202 2 0 5 0 7 0z m-3-73c-107-1-212-42-291-115-130-122-173-328-93-496 69-143 222-242 384-243 181 0 356 124 410 304 31 104 21 220-29 317-70 138-220 231-376 233-2 0-3 0-5 0z m1-76c194 0 351-157 351-351 0-194-157-351-351-351-194 0-351 157-351 351 0 194 157 351 351 351z" horiz-adv-x="1000" />

<glyph glyph-name="cancel" unicode="&#xe863;" d="M724 112q0-22-15-38l-76-76q-16-15-38-15t-38 15l-164 165-164-165q-16-15-38-15t-38 15l-76 76q-16 16-16 38t16 38l164 164-164 164q-16 16-16 38t16 38l76 76q16 16 38 16t38-16l164-164 164 164q16 16 38 16t38-16l76-76q15-15 15-38t-15-38l-164-164 164-164q15-15 15-38z" horiz-adv-x="785.7" />

<glyph glyph-name="ok" unicode="&#xe864;" d="M933 534q0-22-16-38l-404-404-76-76q-16-15-38-15t-38 15l-76 76-202 202q-15 16-15 38t15 38l76 76q16 16 38 16t38-16l164-165 366 367q16 16 38 16t38-16l76-76q16-15 16-38z" horiz-adv-x="1000" />

<glyph glyph-name="plus-1" unicode="&#xe865;" d="M786 439v-107q0-22-16-38t-38-15h-232v-233q0-22-16-37t-38-16h-107q-22 0-38 16t-15 37v233h-232q-23 0-38 15t-16 38v107q0 23 16 38t38 16h232v232q0 22 15 38t38 16h107q23 0 38-16t16-38v-232h232q23 0 38-16t16-38z" horiz-adv-x="785.7" />

<glyph glyph-name="eye-off" unicode="&#xe866;" d="M310 105l43 79q-48 35-76 88t-27 114q0 67 34 125-128-65-213-197 94-144 239-209z m217 424q0 11-8 19t-19 7q-70 0-120-50t-50-119q0-11 8-19t19-8 19 8 8 19q0 48 34 82t82 34q11 0 19 8t8 19z m202 106q0-4 0-5-59-105-176-316t-176-316l-28-50q-5-9-15-9-7 0-75 39-9 6-9 16 0 7 25 49-80 36-147 96t-117 137q-11 17-11 38t11 39q86 131 212 207t277 76q50 0 100-10l31 54q5 9 15 9 3 0 10-3t18-9 18-10 18-10 10-7q9-5 9-15z m21-249q0-78-44-142t-117-91l157 280q4-25 4-47z m250-72q0-19-11-38-22-36-61-81-84-96-194-149t-234-53l41 74q119 10 219 76t169 171q-65 100-158 164l35 63q53-36 102-85t81-103q11-19 11-39z" horiz-adv-x="1000" />

<glyph glyph-name="bell-1" unicode="&#xe867;" d="M509-96q0 8-9 8-33 0-57 24t-23 57q0 9-9 9t-9-9q0-41 29-70t69-28q9 0 9 9z m-372 160h726q-149 168-149 465 0 28-13 58t-39 58-67 45-95 17-95-17-67-45-39-58-13-58q0-297-149-465z m827 0q0-29-21-50t-50-21h-250q0-59-42-101t-101-42-101 42-42 101h-250q-29 0-50 21t-21 50q28 24 51 49t47 67 42 89 27 115 11 145q0 84 66 157t171 89q-5 10-5 21 0 23 16 38t38 16 38-16 16-38q0-11-5-21 106-16 171-89t66-157q0-78 11-145t28-115 41-89 48-67 50-49z" horiz-adv-x="1000" />

<glyph glyph-name="link" unicode="&#xe868;" d="M813 171q0 23-16 38l-116 116q-16 16-38 16-24 0-40-18 1-1 10-10t12-12 9-11 7-14 2-15q0-23-16-38t-38-16q-8 0-15 2t-14 7-11 9-12 12-10 10q-19-17-19-40 0-23 16-38l115-116q15-15 38-15 22 0 38 15l82 81q16 16 16 37z m-393 394q0 22-15 38l-115 115q-16 16-38 16-22 0-38-15l-82-82q-16-15-16-37 0-22 16-38l116-116q15-15 38-15 23 0 40 17-2 2-11 11t-12 12-8 10-7 14-2 16q0 22 15 38t38 15q9 0 16-2t14-7 11-8 12-12 10-11q18 17 18 41z m500-394q0-66-48-113l-82-81q-46-47-113-47-68 0-114 48l-115 115q-46 47-46 114 0 68 49 116l-49 49q-48-49-116-49-67 0-114 47l-116 116q-47 47-47 114t47 113l82 82q47 46 114 46 67 0 114-47l115-116q46-46 46-113 0-69-49-117l49-49q48 49 116 49 67 0 114-47l116-116q47-47 47-114z" horiz-adv-x="928.6" />

<glyph glyph-name="clock" unicode="&#xe869;" d="M500 546v-250q0-7-5-12t-13-5h-178q-8 0-13 5t-5 12v36q0 8 5 13t13 5h125v196q0 8 5 13t12 5h36q8 0 13-5t5-13z m232-196q0 83-41 152t-110 111-152 41-153-41-110-111-41-152 41-152 110-111 153-41 152 41 110 111 41 152z m125 0q0-117-57-215t-156-156-215-58-216 58-155 156-58 215 58 215 155 156 216 58 215-58 156-156 57-215z" horiz-adv-x="857.1" />

<glyph glyph-name="users-add" unicode="&#xe86a;" d="M797 417c4 0 8-2 10-5 2-1 3-3 4-5 1-1 1-3 2-5 0-1 0-1 0-1l0-172 171 0c4 0 8-1 12-5 3-3 5-7 4-10l0-94c0-5-2-8-4-11-3-3-7-5-12-5l-171 0 0-172c0-4-2-8-6-11-3-3-7-4-10-5l-94 0c-4 0-8 2-11 5-2 2-3 5-4 7 0 0 0 0 0 1 0 0 0 1 0 2 0 0 0 1 0 1l0 0c-1 57 0 115 0 172l-173 0c-4 0-7 2-10 5-3 3-5 6-5 11l0 94c0 3 1 5 3 8 2 3 6 6 11 7 0 0 1 0 1 0l173 0 0 172c0 4 1 8 4 11 2 3 6 5 9 5 1 0 1 0 2 0l0 0 0 0 94 0z m-166-370l0-116c0-5 0-10 2-15l-378 0c-39 0-71 12-95 34-24 23-36 54-36 92 1 18 2 35 2 51 1 17 3 34 7 54 4 19 9 37 13 53 5 17 12 32 21 47 10 16 20 29 31 40 11 11 25 20 41 26 17 7 35 10 55 10 4-1 11-5 21-11 9-6 21-13 35-22 15-10 33-18 53-24 17-5 35-9 54-10-7-10-12-21-14-33 0-2 0-3 0-9l0-94c0-2 0-3 0-5 2-21 13-42 31-54 18-13 41-14 41-14l116 0z m0 239l-50 0c2 1 4 2 6 4 13 8 25 15 36 22 3 2 5 4 8 5l0-31z m-631 83c0-25 9-44 27-58 18-13 41-19 68-19l65 0c34 40 77 61 129 62-26 38-39 80-39 126 0 9 1 20 2 32-21-8-43-11-64-11-20 0-39 3-59 10-20 7-36 14-47 21-12 7-19 10-22 10-40 0-60-58-60-173z m631 12c-8-12-18-24-29-35-38-35-82-53-133-54-52 0-96 18-133 54-36 37-55 82-55 134 1 49 20 93 55 132 36 38 80 57 133 55 52-2 97-20 133-55 36-35 54-79 55-132 0-8 0-16-1-24-9-8-17-19-21-30-4-11-4-25-4-25l0-20z m76 93l2-1c-2 0-4 1-6 1-1 0-1 0-2 0-5 0-9-1-13-2 0 3 0 5 0 8 0 9-1 20-3 32 22-8 44-11 66-11 19-1 38 3 58 10 19 8 35 15 47 21 12 7 19 10 22 10 40 0 60-58 60-173 1-25-8-45-27-58-12-8-26-14-41-17l0 107c0 2 0 3-1 5-1 21-13 42-30 54-18 13-42 14-42 14l-90 0z m-81 193c0-34 12-64 36-88 25-25 54-37 89-37 34 0 64 12 88 37 25 24 37 54 37 88 0 35-12 64-37 89-24 24-54 36-88 36-35 0-64-12-89-36-24-25-36-54-36-89z m-564 0c0-34 13-64 37-88 25-25 54-37 89-37 34 0 63 12 88 37 25 24 37 54 37 88 0 35-12 64-37 89-25 24-54 36-88 36-35 0-64-12-89-36-24-25-37-54-37-89z" horiz-adv-x="1000" />

<glyph glyph-name="search" unicode="&#xe86b;" d="M643 386q0 103-73 176t-177 74-177-74-73-176 73-177 177-73 177 73 73 177z m286-465q0-29-22-50t-50-21q-30 0-50 21l-191 191q-100-69-223-69-80 0-153 31t-125 84-84 125-31 153 31 152 84 126 125 84 153 31 153-31 125-84 84-126 31-152q0-123-69-223l191-191q21-21 21-51z" horiz-adv-x="928.6" />

<glyph glyph-name="asset-list" unicode="&#xe86c;" d="M410 544l-353 0 0-638 886 0 0 11 36 0c8 0 15 2 21 6l0-39c-1-18-16-34-34-35l-932 0c-17 1-33 16-34 35l0 682c1 18 16 34 34 35l448 0-72-57z m336-448l233 0 0-130-760 0 0 130 246 0-77 155c15-6 31-9 47-9 55 0 102 34 121 83l190-229z m-576-124l-48 0 0 71 48 0 0-71z m216 173l-167 0c-19-1-36-12-44-28l-53 0 0 71 243 0 21-43z m596 451c10-6 18-17 18-30l0-426c-5 2-11 4-17 5l-4 0-36 0 0 399-198 0 11 13c7 0 8 0 10 1l4 1 45 13 17-12c21-14 48-15 70-5l80 41z m-104-451l-109 0-36 43 145 0 0-43z m-537 117l-219 0 0 71 184 0c6-23 18-44 36-60 3-3 1-4-1-8 0-1 0-2 0-3z m537 0l-206 0-59 71 265 0 0-71z m-446 192c47 0 84-38 84-84 0-47-37-84-84-84-46 0-84 37-84 84 0 46 38 84 84 84z m341 320l15 42c3 7 7 12 16 14l121 18c1 1 2 1 5 1 10-1 11-4 14-8 9-11 3-31-13-34l-108-17-23-67 11-38 62-43 98 50c19 8 44-23 18-37l-109-56c-6-3-14-3-21 1l-36 25-67-20-6 20-189-221c-14 56-65 98-125 98l240 190c-2-5-3-10-3-16 0-30 25-55 55-55 8 0 15 1 22 4l0 0c20 9 33 28 33 51 0 30-24 55-55 55l-9-1-8 26 62 18z m-468-367l-183 0 0 71 234 0c-17-12-31-27-40-45-5-8-8-17-11-26z m573 0l-250 0 60 71 190 0 0-71z m-150 304c20 0 35-16 35-35 0-19-15-35-35-35-19 0-34 16-34 35 0 19 15 35 34 35z" horiz-adv-x="1000" />

<glyph glyph-name="org-list" unicode="&#xe86d;" d="M57 544l0-638 886 0 0 638-6 0 0 57 28 0c18-1 35-16 35-35 0-227 0-455 0-682-1-18-16-34-34-35l-932 0c-17 1-33 16-34 35l0 682c1 18 16 34 34 35l310 0 0-57-287 0z m755 212l76 0 0-804-496 0 0 804 75 0 0 78 345 0 0-78z m-131-630l-81 0 0-174 81 0 0 174z m-337-154l-218 0 0 71 218 0 0-71z m430 154l-38 0 0-97 38 0 0 97z m-229 0l-39 0 0-97 39 0 0 97z m-201-9l-218 0 0 71 218 0 0-71z m201 124l-39 0 0-79 39 0 0 79z m76 0l-38 0 0-79 38 0 0 79z m77 0l-39 0 0-79 39 0 0 79z m76 0l-38 0 0-79 38 0 0 79z m-430 21l-218 0 0 71 218 0 0-71z m201 93l-39 0 0-79 39 0 0 79z m76 0l-38 0 0-79 38 0 0 79z m77 0l-39 0 0-79 39 0 0 79z m76 0l-38 0 0-79 38 0 0 79z m-229 114l-39 0 0-78 39 0 0 78z m76 0l-38 0 0-78 38 0 0 78z m77 0l-39 0 0-78 39 0 0 78z m76 0l-38 0 0-78 38 0 0 78z m-430-62l-218 0 0 71 218 0 0-71z m201 177l-39 0 0-79 39 0 0 79z m76 0l-38 0 0-79 38 0 0 79z m77 0l-39 0 0-79 39 0 0 79z m76 0l-38 0 0-79 38 0 0 79z m-229 97l-39 0 0-39 39 0 0 39z m76 0l-38 0 0-39 38 0 0 39z m77 0l-39 0 0-39 39 0 0 39z m76 0l-38 0 0-39 38 0 0 39z" horiz-adv-x="1000" />

<glyph glyph-name="location-list" unicode="&#xe86e;" d="M966-151l-932 0c-17 1-33 16-34 35l0 682c1 18 16 34 34 35l325 0c0-11 1-22 2-33 2-8 3-16 5-24l-309 0 0-638 886 0 0 68c21 11 40 25 57 42l0-132c-1-18-16-34-34-35z m-184 425c128-25 217-84 217-153 0-91-159-166-355-166-196 0-355 75-355 166 0 69 90 128 218 153l9-17 8-12c-100-18-170-57-170-103 0-62 130-112 290-112 160 0 290 50 290 112 0 46-69 85-169 103l11 19 6 10z m-435-302l-221 0 0 71 141 0c8-13 18-24 29-34 16-15 33-27 51-37z m298 134c0 0 237 347 237 495 0 131-106 237-237 237-131 0-237-106-237-237 0-148 237-495 237-495z m-404 11l-115 0 0 71 132 0c-13-23-18-47-17-71z m338 0l-143 0c-14 6-26 14-32 25 0 0 4 7 9 10 21 19 49 29 78 36l43 0c15-24 30-47 45-71z m273 0l-142 0c16 23 31 47 45 71l41 0c6-2 12-4 19-6 19-6 40-13 55-23l0-32c-4-2-8-5-13-7-2-1-4-2-5-3z m78 484l35 0c18-1 35-16 35-35l0-339c-17 16-36 30-57 42l0 275-19 0c4 19 6 38 6 57z m-597-339l-207 0 0 71 326 0c5-10 9-19 9-19-16-4-32-9-47-14-27-10-55-22-81-38z m537 39c-12 4-24 8-37 11-1 1-3 1-5 2l0 1c4 6 7 12 10 18l32 0 0-32z m-456 106l-288 0 0 71 258 0c9-24 19-47 30-71z m230 271c46 0 84-37 84-83 0-46-38-84-84-84-46 0-84 38-84 84 0 46 38 83 84 83z m34-77c1-4 1-8 0-12-5-34-54-35-66-9-3 7-3 14-2 21l68 0z" horiz-adv-x="1000" />

<glyph glyph-name="vert-ellipsis" unicode="&#xe86f;" d="M606 119l0-107c0-15-5-27-15-37-9-10-22-15-37-16l-107 0c-15 0-27 6-37 16-10 11-16 23-16 37l0 107c0 15 5 28 16 38 10 11 23 16 37 15l107 0c14 0 27-5 37-15 11-10 16-22 15-38z m0 284l0-107c0-14-5-27-15-37-9-11-22-16-37-15l-107 0c-15 0-27 5-37 15-10 10-16 22-16 37l0 107c0 15 5 28 16 37 10 10 23 16 37 16l107 0c14 0 27-5 37-16 11-10 16-23 15-37z m0 284l0-106c0-15-5-28-15-38-9-11-22-16-37-16l-107 0c-15 0-27 5-37 16-10 10-16 23-16 38l0 106c0 15 5 27 16 38 10 10 23 16 37 16l107 0c14 0 27-6 37-16 11-11 16-23 15-38z" horiz-adv-x="1000" />

<glyph glyph-name="ellipsis" unicode="&#xe870;" d="M322 403l0-107c0-14-5-27-15-37-10-11-22-16-38-15l-106 0c-15 0-28 5-38 15-10 10-15 22-16 37l0 107c0 15 6 28 16 38 11 9 24 15 38 15l106 0c15 0 28-5 38-15 11-11 16-24 15-38z m284 0l0-107c0-14-5-27-15-37-11-11-24-16-38-15l-107 0c-14 0-27 5-37 15-11 10-16 22-15 37l0 107c0 15 5 28 15 38 10 9 22 15 37 15l107 0c15 0 28-5 38-15 9-11 15-24 15-38z m285 0l0-107c0-14-6-27-16-37-11-11-23-16-38-15l-106 0c-15 0-28 5-38 15-11 10-16 22-16 37l0 107c0 15 5 28 16 38 10 9 23 15 38 15l106 0c15 0 28-5 38-15 10-11 15-24 16-38z" horiz-adv-x="1000" />

<glyph glyph-name="export" unicode="&#xe871;" d="M786 298v-144q0-67-47-114t-114-47h-464q-67 0-114 47t-47 114v464q0 66 47 113t114 48h142q7 0 13-6t5-12q0-15-15-18-43-15-74-34-5-2-9-2h-62q-37 0-63-26t-27-63v-464q0-37 27-63t63-27h464q37 0 63 27t26 63v119q0 11 10 16 16 7 31 21 8 9 19 4 12-5 12-16z m132 277l-214-214q-10-11-25-11-7 0-14 3-22 9-22 33v107h-89q-181 0-245-73-66-77-41-264 2-13-11-19-5-1-7-1-9 0-14 7-6 8-12 17t-22 39-28 55-21 64-10 68q0 27 2 51t8 50 15 49 27 45 38 42 52 34 70 27 89 17 110 6h89v107q0 24 22 33 7 3 14 3 14 0 25-11l214-214q11-10 11-25t-11-25z" horiz-adv-x="928.6" />

<glyph glyph-name="up-dir" unicode="&#xe872;" d="M813 213c0-10-4-20-11-28-8-8-17-11-28-11l-547 0c-11 0-20 4-27 11-8 8-12 17-12 28-1 11 3 20 12 28l273 274c8 7 17 11 28 11 11 0 20-4 27-11l274-274c7-8 11-17 11-28z" horiz-adv-x="1000" />

<glyph glyph-name="down-dir" unicode="&#xe873;" d="M812 487c0-10-3-19-10-28l-274-273c-8-8-17-12-27-12-11 0-20 4-28 12l-273 273c-8 9-12 18-12 28 0 10 4 19 12 27 8 8 17 12 27 12l547 0c10 0 19-4 28-12 8-8 11-17 10-27z" horiz-adv-x="1000" />

<glyph glyph-name="left-dir" unicode="&#xe874;" d="M675 623l0-546c0-10-3-19-11-27-7-8-16-12-28-12-12 0-21 4-27 12l-274 273c-7 8-10 17-10 27 0 10 3 19 10 27l274 274c8 8 17 12 27 12 10 0 20-4 28-12 9-8 13-18 11-28z" horiz-adv-x="1000" />

<glyph glyph-name="right-dir" unicode="&#xe875;" d="M675 351c0-10-4-19-11-27l-273-273c-8-8-18-12-28-12-10 0-19 4-27 12-8 8-12 17-12 27l0 547c0 10 4 20 12 27 8 7 17 11 27 12 10 1 20-3 28-12l273-273c7-8 11-17 11-28z" horiz-adv-x="1000" />

<glyph glyph-name="refresh" unicode="&#xe876;" d="M983 246l0-4c-28-117-86-211-175-284-88-72-192-108-311-108-63 0-124 12-183 36-59 24-112 58-159 103l-84-84c-8-9-18-13-29-13-11 0-21 4-29 13-9 8-13 18-13 29l0 291c0 11 4 21 13 29 8 9 18 13 29 13l292 0c11 0 20-4 29-13 8-8 12-18 11-29 0-11-4-20-11-29l-90-90c31-28 66-50 105-66 39-16 80-24 122-23 58 0 112 14 163 43 50 29 91 67 121 115 5 8 16 34 35 77 3 10 9 15 19 15l124 0c7 0 12-2 16-7 3-4 5-9 5-14z m17 520l0-291c0-11-4-21-12-29-8-9-18-13-30-13l-292 0c-11 0-21 4-29 13-9 8-12 18-12 29 1 11 5 20 12 29l90 90c-64 59-139 89-227 89-58 0-112-14-163-43-50-28-91-67-121-115-5-8-16-34-34-77-4-10-10-15-20-15l-129 0c-6 0-11 2-15 7-5 4-7 9-6 14l0 4c28 117 86 211 176 284 89 72 193 108 312 108 63 0 125-12 185-36 60-24 113-58 160-103l84 84c8 9 18 13 29 13 11 0 21-4 30-13 9-8 13-18 12-29z" horiz-adv-x="1000" />

<glyph glyph-name="off" unicode="&#xe877;" d="M857 350q0-87-34-166t-91-137-137-92-166-34-167 34-136 92-92 137-34 166q0 102 45 191t126 151q24 18 54 14t46-28q18-23 14-53t-28-47q-54-41-84-101t-30-127q0-58 23-111t61-91 91-61 111-23 110 23 92 61 61 91 22 111q0 68-30 127t-84 101q-23 18-28 47t14 53q17 24 47 28t53-14q81-61 126-151t45-191z m-357 429v-358q0-29-21-50t-50-21-51 21-21 50v358q0 29 21 50t51 21 50-21 21-50z" horiz-adv-x="857.1" />

<glyph glyph-name="key" unicode="&#xe878;" d="M464 564q0 45-31 76t-76 31-76-31-31-76q0-23 11-46-23 11-47 11-44 0-76-32t-31-76 31-75 76-32 76 32 31 75q0 24-10 47 23-11 46-11 45 0 76 31t31 76z m475-393q0-9-27-36t-37-28q-5 0-16 9t-20 19-22 22-13 14l-54-53 123-123q15-16 15-38 0-23-21-45t-46-22q-22 0-37 16l-375 374q-98-73-204-73-91 0-148 57t-57 149q0 89 53 174t138 139 175 53q91 0 148-58t57-148q0-105-73-203l198-199 54 54q-2 2-14 14t-23 21-18 21-9 15q0 10 27 37t37 28q7 0 13-6 3-3 26-25t45-44 49-48 40-44 16-23z" horiz-adv-x="1000" />

<glyph glyph-name="down-open" unicode="&#xe879;" d="M939 399l-414-413q-10-11-25-11t-25 11l-414 413q-11 11-11 26t11 25l93 92q10 11 25 11t25-11l296-296 296 296q11 11 25 11t26-11l92-92q11-11 11-25t-11-26z" horiz-adv-x="1000" />

<glyph glyph-name="left-open" unicode="&#xe87a;" d="M654 682l-297-296 297-297q10-10 10-25t-10-25l-93-93q-11-10-25-10t-25 10l-414 415q-11 10-11 25t11 25l414 414q10 11 25 11t25-11l93-93q10-10 10-25t-10-25z" horiz-adv-x="714.3" />

<glyph glyph-name="right-open" unicode="&#xe87b;" d="M618 361l-414-415q-11-10-25-10t-25 10l-93 93q-11 11-11 25t11 25l296 297-296 296q-11 11-11 25t11 25l93 93q10 11 25 11t25-11l414-414q10-11 10-25t-10-25z" horiz-adv-x="714.3" />

<glyph glyph-name="up-open" unicode="&#xe87c;" d="M939 107l-92-92q-11-10-26-10t-25 10l-296 297-296-297q-11-10-25-10t-25 10l-93 92q-11 11-11 26t11 25l414 414q11 10 25 10t25-10l414-414q11-11 11-25t-11-26z" horiz-adv-x="1000" />

<glyph glyph-name="sig-dewpoint" unicode="&#xe886;" d="M892 281l0 430c0 25-6 48-18 70-12 21-29 38-50 50-21 13-44 19-70 19-25 0-48-6-69-19-21-12-38-29-51-50-12-22-19-45-19-70l0-430c-30-23-54-51-71-85-17-34-25-71-25-109 0-43 11-82 33-119 22-36 51-65 87-86 37-21 77-32 120-32 31 0 61 6 90 18 29 13 54 30 76 51 22 22 39 48 51 77 13 30 18 60 18 91 0 41-8 78-25 111-17 34-42 61-77 83z m-138-312c-21 0-40 5-59 15-18 11-33 26-43 44-11 18-16 38-16 59 0 25 9 49 27 70 17 20 37 34 62 43l0 140c0 11 2 21 7 28 5 8 12 12 22 12 11 0 18-4 23-11 5-7 7-17 7-29l0-140c25-9 45-23 61-43 19-21 28-45 28-70 0-21-5-41-16-59-10-18-25-33-43-44-19-10-38-15-60-15z m-503 174c-44 0-85 10-123 32-37 20-66 48-88 83-23 37-34 76-34 118 0 18 4 36 11 56 7 16 17 35 30 58 9 13 25 36 47 69 30 43 54 78 72 106 30 47 59 95 85 145 24-53 52-102 83-149 17-27 42-61 75-102 21-27 37-47 45-60 14-21 24-40 31-58 7-20 11-42 11-65 0-42-11-81-34-118-21-35-51-63-88-83-38-22-79-32-123-32z" horiz-adv-x="1000" />

<glyph glyph-name="sensonode" unicode="&#xe97d;" d="M523-148l-46 0c-13 0-23 10-23 23l0 36 0 0-24 22 0 12-24 11 0 0 0 34c-7 2-11 5-11 7 0 1 0 1 0 1 0 1 0 1 0 2l0 16c-29 1-54 18-67 41-12 9-19 19-19 29 0 7 3 14 8 20l0 133c0 5 0 9 1 14-16 6-26 13-26 21 0 3 2 6 5 9l0 26c0 9 7 16 15 16l17 0c22 4 74 7 138 8l15 22 0 0 0 13c-3 1-4 4-4 6l0 14c0 2 1 4 4 6l0 11c-3 1-4 3-4 6l0 13c0 3 1 5 4 6l0 4 0 0-17 23c0 1-1 1-1 2l-1 1 1 0c0 1-1 1-1 2l0 47c0 4 5 7 10 7l0 0 0 114c0 6 4 11 10 13l0 192c0 7 8 13 17 13 9 0 17-6 17-13l0-192c6-2 10-7 10-13l0-114 0 0c5 0 10-3 10-7l0-47-1-2 1 0-1-1c0-1-1-1-1-2l-17-23 0 0 0-4c3-1 5-3 5-6l0-13c0-3-2-5-5-6l0-11c3-2 5-4 5-6l0-14c0-2-2-5-5-6l0-13 0 0 15-22c64-1 116-4 138-8l17 0c9 0 15-7 15-16l0-26c3-3 5-6 5-9 0-8-10-15-26-21 1-5 1-9 1-14l0-133c6-6 8-13 8-20 0-10-6-20-19-29-13-23-38-40-67-41l0-16c0-1 0-1 0-2 0 0 0 0 0-1 0-2-4-5-11-7l0-34 0 0-24-11 0-12-24-22 0 0 0-36c0-13-10-23-23-23z m209 709c-13-32-32-59-56-83l-26 26c42 42 66 99 66 158 0 60-24 117-66 159l26 26c24-24 43-52 56-83 14-32 21-66 21-102 0-35-7-69-21-101z m-108 233c35-35 54-82 54-132 0-49-19-96-54-132l-27 27c28 28 44 65 44 105 0 40-16 78-44 106l27 26z m-20-132c0-30-13-59-33-79l-27 27c14 13 22 32 22 52 0 21-8 40-22 53l27 27c20-21 33-49 33-80z" horiz-adv-x="1000" />

<glyph glyph-name="sensonode2" unicode="&#xe97e;" d="M523-148l-46 0c-13 0-23 10-23 23l0 36 0 0-24 22 0 12-24 11 0 0 0 34c-7 2-11 5-11 7 0 1 0 1 1 1-1 1-1 1-1 2l0 16c-29 1-54 18-67 41-12 9-19 19-19 29 0 7 3 14 8 20l0 133c0 5 0 9 1 14-16 6-25 13-25 21 0 3 1 6 4 9l0 26c0 9 7 16 15 16l17 0c9 1 23 3 41 4l17 26 0 0 0 13c-2 1-4 4-4 6l0 14c0 2 2 4 4 6l0 11c-2 1-4 3-4 6l0 13c0 3 2 5 4 6l0 4 0 0-16 23c-1 1-1 1-1 2l-1 1 0 0c0 1 0 1 0 2l0 47c0 4 4 7 10 7l0 0 0 114c0 6 4 11 10 13l0 192c0 7 7 13 17 13 9 0 16-6 16-13l0-192c6-2 10-7 10-13l0-114 1 0c5 0 9-3 9-7l0-47 0-2 0 0 0-1c-1-1-1-1-2-2l-16-23 0 0 0-4c2-1 4-3 4-6l0-13c0-3-2-5-4-6l0-11c2-2 4-4 4-6l0-14c0-2-2-5-4-6l0-13 0 0 15-22c19 0 40 0 61 0 78 0 145-3 171-8l17 0c9 0 15-7 15-16l0-26c3-3 5-6 5-9 0-8-10-15-26-21 1-5 1-9 1-14l0-133c6-6 8-13 8-20 0-10-6-20-19-29-13-23-38-40-67-41l0-16c0-1 0-1 0-2 0 0 0 0 0-1 0-2-4-5-11-7l0-34 0 0-24-11 0-12-24-22 0 0 0-36c0-13-10-23-23-23z m114 709c-13-32-32-59-56-83l-26 26c42 42 65 99 65 158 0 60-23 117-65 159l26 26c24-24 43-52 56-83 14-32 21-66 21-102 0-35-7-69-21-101z m-109 233c35-35 55-82 55-132 0-49-20-96-55-132l-26 27c28 28 44 65 44 105 0 40-16 78-44 106l26 26z m-20-132c0-30-12-59-33-79l-26 27c13 13 22 32 22 52 0 21-9 40-22 53l26 27c21-21 33-49 33-80z" horiz-adv-x="1000" />

<glyph glyph-name="resize-full-alt" unicode="&#xf0b2;" d="M716 548l-198-198 198-198 80 80q17 18 39 8 22-9 22-33v-250q0-14-10-25t-26-11h-250q-23 0-32 23-10 21 7 38l81 81-198 198-198-198 80-81q17-17 8-38-10-23-33-23h-250q-15 0-25 11t-11 25v250q0 24 22 33 22 10 39-8l80-80 198 198-198 198-80-80q-11-11-25-11-7 0-14 3-22 9-22 33v250q0 14 11 25t25 11h250q23 0 33-23 9-21-8-38l-80-81 198-198 198 198-81 81q-17 17-7 38 9 23 32 23h250q15 0 26-11t10-25v-250q0-24-22-33-7-3-14-3-14 0-25 11z" horiz-adv-x="857.1" />

<glyph glyph-name="menu" unicode="&#xf0c9;" d="M857 100v-71q0-15-10-25t-26-11h-785q-15 0-25 11t-11 25v71q0 15 11 25t25 11h785q15 0 26-11t10-25z m0 286v-72q0-14-10-25t-26-10h-785q-15 0-25 10t-11 25v72q0 14 11 25t25 10h785q15 0 26-10t10-25z m0 285v-71q0-14-10-25t-26-11h-785q-15 0-25 11t-11 25v71q0 15 11 26t25 10h785q15 0 26-10t10-26z" horiz-adv-x="857.1" />

<glyph glyph-name="mail-alt" unicode="&#xf0e0;" d="M1000 454v-443q0-37-26-63t-63-27h-822q-36 0-63 27t-26 63v443q25-27 56-49 202-137 278-192 32-24 51-37t53-27 61-13h2q28 0 61 13t53 27 51 37q95 68 278 192 32 22 56 49z m0 164q0-44-27-84t-68-69q-210-146-262-181-5-4-23-17t-30-22-29-18-32-15-28-5h-2q-12 0-27 5t-32 15-30 18-30 22-23 17q-51 35-147 101t-114 80q-35 23-65 64t-31 77q0 43 23 72t66 29h822q36 0 63-26t26-63z" horiz-adv-x="1000" />

<glyph glyph-name="bell" unicode="&#xf0f3;" d="M509-96q0 8-9 8-33 0-57 24t-23 57q0 9-9 9t-9-9q0-41 29-70t69-28q9 0 9 9z m455 160q0-29-21-50t-50-21h-250q0-59-42-101t-101-42-101 42-42 101h-250q-29 0-50 21t-21 50q28 24 51 49t47 67 42 89 27 115 11 145q0 84 66 157t171 89q-5 10-5 21 0 23 16 38t38 16 38-16 16-38q0-11-5-21 106-16 171-89t66-157q0-78 11-145t28-115 41-89 48-67 50-49z" horiz-adv-x="1000" />

<glyph glyph-name="angle-left" unicode="&#xf104;" d="M350 546q0-7-6-12l-219-220 219-219q6-6 6-13t-6-13l-28-28q-5-5-12-5t-13 5l-260 261q-6 5-6 12t6 13l260 260q5 6 13 6t12-6l28-28q6-5 6-13z" horiz-adv-x="357.1" />

<glyph glyph-name="angle-right" unicode="&#xf105;" d="M332 314q0-7-5-12l-261-261q-5-5-12-5t-13 5l-28 28q-6 6-6 13t6 13l219 219-219 220q-6 5-6 12t6 13l28 28q5 6 13 6t12-6l261-260q5-5 5-13z" horiz-adv-x="357.1" />

<glyph glyph-name="angle-up" unicode="&#xf106;" d="M600 189q0-7-6-12l-28-28q-5-6-12-6t-13 6l-220 219-219-219q-5-6-13-6t-12 6l-28 28q-6 5-6 12t6 13l260 260q5 6 12 6t13-6l260-260q6-5 6-13z" horiz-adv-x="642.9" />

<glyph glyph-name="angle-down" unicode="&#xf107;" d="M600 439q0-7-6-12l-260-261q-5-5-13-5t-12 5l-260 261q-6 5-6 12t6 13l28 28q5 6 12 6t13-6l219-219 220 219q5 6 13 6t12-6l28-28q6-5 6-13z" horiz-adv-x="642.9" />

<glyph glyph-name="desktop" unicode="&#xf108;" d="M1000 296v465q0 7-5 12t-13 6h-893q-7 0-12-6t-6-12v-465q0-7 6-12t12-5h893q7 0 13 5t5 12z m71 465v-607q0-37-26-63t-63-27h-303q0-20 9-43t17-40 9-24q0-14-10-25t-25-11h-286q-15 0-25 11t-11 25q0 8 9 25t18 39 9 43h-304q-36 0-63 27t-26 63v607q0 37 26 63t63 26h893q37 0 63-26t26-63z" horiz-adv-x="1071.4" />

<glyph glyph-name="laptop" unicode="&#xf109;" d="M232 136q-37 0-63 26t-26 63v393q0 37 26 63t63 26h607q37 0 63-26t27-63v-393q0-37-27-63t-63-26h-607z m-18 482v-393q0-7 6-13t12-5h607q8 0 13 5t5 13v393q0 7-5 12t-13 6h-607q-7 0-12-6t-6-12z m768-518h89v-54q0-22-26-37t-63-16h-893q-36 0-63 16t-26 37v54h982z m-402-54q9 0 9 9t-9 9h-89q-9 0-9-9t9-9h89z" horiz-adv-x="1071.4" />

<glyph glyph-name="tablet" unicode="&#xf10a;" d="M357 64q0 15-10 25t-26 11-25-11-10-25 10-25 25-10 26 10 10 25z m214 90v535q0 8-5 13t-12 5h-465q-7 0-12-5t-6-13v-535q0-8 6-13t12-5h465q7 0 12 5t5 13z m72 535v-607q0-37-26-63t-63-26h-465q-36 0-63 26t-26 63v607q0 37 26 63t63 27h465q36 0 63-27t26-63z" horiz-adv-x="642.9" />

<glyph glyph-name="mobile" unicode="&#xf10b;" d="M259 64q0 19-13 32t-32 13-31-13-13-32 13-31 31-13 32 13 13 31z m116 90v392q0 8-5 13t-13 5h-286q-7 0-12-5t-5-13v-392q0-8 5-13t12-5h286q7 0 13 5t5 13z m-107 473q0 9-9 9h-89q-9 0-9-9t9-9h89q9 0 9 9z m161 9v-572q0-29-22-50t-50-21h-286q-29 0-50 21t-21 50v572q0 29 21 50t50 21h286q29 0 50-21t22-50z" horiz-adv-x="428.6" />

<glyph glyph-name="unlink" unicode="&#xf127;" d="M245 141l-143-143q-6-5-13-5t-12 5q-6 6-6 13t6 13l142 142q6 5 13 5t13-5q5-5 5-12t-5-13z m94-23v-179q0-8-5-13t-13-5-12 5-5 13v179q0 8 5 13t12 5 13-5 5-13z m-125 125q0-8-5-13t-13-5h-178q-8 0-13 5t-5 13 5 13 13 5h178q8 0 13-5t5-13z m706-72q0-66-48-113l-82-81q-46-47-113-47-68 0-114 48l-186 187q-12 12-24 31l134 10 152-153q15-15 38-15t38 15l82 81q16 16 16 37 0 23-16 38l-153 154 10 133q20-11 31-23l188-188q47-48 47-114z m-345 404l-133-10-152 153q-16 16-38 16-22 0-38-15l-82-82q-16-15-16-37 0-22 16-38l153-153-10-134q-20 12-32 24l-187 187q-47 48-47 114 0 67 47 113l82 82q47 46 114 46 67 0 114-47l186-187q12-12 23-32z m354-46q0-8-5-13t-13-5h-179q-8 0-13 5t-5 13 5 12 13 5h179q8 0 13-5t5-12z m-304 303v-178q0-8-5-13t-13-5-13 5-5 13v178q0 8 5 13t13 5 13-5 5-13z m227-84l-143-143q-6-5-13-5t-12 5q-5 6-5 13t5 13l143 143q5 5 12 5t13-5q5-6 5-13t-5-13z" horiz-adv-x="928.6" />

<glyph glyph-name="info-1" unicode="&#xf129;" d="M357 100v-71q0-15-10-25t-26-11h-285q-15 0-25 11t-11 25v71q0 15 11 25t25 11h35v214h-35q-15 0-25 11t-11 25v71q0 15 11 25t25 11h214q15 0 25-11t11-25v-321h35q15 0 26-11t10-25z m-71 643v-107q0-15-11-25t-25-11h-143q-14 0-25 11t-11 25v107q0 14 11 25t25 11h143q15 0 25-11t11-25z" horiz-adv-x="357.1" />

<glyph glyph-name="lock-open" unicode="&#xf13e;" d="M589 421q23 0 38-15t16-38v-322q0-22-16-37t-38-16h-535q-23 0-38 16t-16 37v322q0 22 16 38t38 15h17v179q0 103 74 177t176 73 177-73 73-177q0-14-10-25t-25-11h-36q-14 0-25 11t-11 25q0 59-42 101t-101 42-101-42-41-101v-179h410z" horiz-adv-x="642.9" />

<glyph glyph-name="bullseye" unicode="&#xf140;" d="M571 350q0-59-41-101t-101-42-101 42-42 101 42 101 101 42 101-42 41-101z m72 0q0 89-63 152t-151 62-152-62-63-152 63-151 152-63 151 63 63 151z m71 0q0-118-83-202t-202-84-202 84-84 202 84 202 202 84 202-84 83-202z m72 0q0 73-29 139t-76 114-114 76-138 28-139-28-114-76-76-114-29-139 29-139 76-113 114-77 139-28 138 28 114 77 76 113 29 139z m71 0q0-117-57-215t-156-156-215-58-216 58-155 156-58 215 58 215 155 156 216 58 215-58 156-156 57-215z" horiz-adv-x="857.1" />

<glyph glyph-name="cubes" unicode="&#xf1b3;" d="M357-61l214 107v176l-214-92v-191z m-36 254l226 96-226 97-225-97z m608-254l214 107v176l-214-92v-191z m-36 254l225 96-225 97-226-97z m-250 163l214 92v149l-214-92v-149z m-36 212l246 105-246 106-246-106z m607-289v-233q0-20-10-37t-29-26l-250-125q-14-8-32-8t-32 8l-250 125q-2 1-4 2-1-1-4-2l-250-125q-14-8-32-8t-31 8l-250 125q-19 9-29 26t-11 37v233q0 21 12 39t32 26l242 104v223q0 22 12 40t31 26l250 107q13 6 28 6t28-6l250-107q20-9 32-26t12-40v-223l242-104q20-8 32-26t11-39z" horiz-adv-x="1285.7" />

<glyph glyph-name="trash" unicode="&#xf1f8;" d="M286 82v393q0 8-5 13t-13 5h-36q-8 0-13-5t-5-13v-393q0-8 5-13t13-5h36q8 0 13 5t5 13z m143 0v393q0 8-5 13t-13 5h-36q-8 0-13-5t-5-13v-393q0-8 5-13t13-5h36q8 0 13 5t5 13z m142 0v393q0 8-5 13t-12 5h-36q-8 0-13-5t-5-13v-393q0-8 5-13t13-5h36q7 0 12 5t5 13z m-303 554h250l-27 65q-4 5-9 6h-177q-6-1-10-6z m518-18v-36q0-8-5-13t-13-5h-54v-529q0-46-26-80t-63-34h-464q-37 0-63 33t-27 79v531h-53q-8 0-13 5t-5 13v36q0 8 5 13t13 5h172l39 93q9 21 31 35t44 15h178q23 0 44-15t30-35l39-93h173q8 0 13-5t5-13z" horiz-adv-x="785.7" />

<glyph glyph-name="user-add" unicode="&#xf234;" d="M393 350q-89 0-152 63t-62 151 62 152 152 63 151-63 63-152-63-151-151-63z m536-71h196q7 0 13-6t5-12v-107q0-8-5-13t-13-5h-196v-197q0-7-6-12t-12-6h-107q-8 0-13 6t-5 12v197h-197q-7 0-12 5t-6 13v107q0 7 6 12t12 6h197v196q0 7 5 13t13 5h107q7 0 12-5t6-13v-196z m-411-125q0-29 21-51t50-21h143v-133q-38-28-95-28h-488q-67 0-108 39t-41 106q0 30 2 58t8 61 15 60 24 55 34 45 48 30 62 11q11 0 22-10 44-34 86-51t92-17 92 17 86 51q11 10 22 10 73 0 121-54h-125q-29 0-50-21t-21-50v-107z" horiz-adv-x="1142.9" />

<glyph glyph-name="user-times" unicode="&#xf235;" d="M393 350q-89 0-152 63t-62 151 62 152 152 63 151-63 63-152-63-151-151-63z m601-179l139-138q5-5 5-13 0-8-5-13l-76-76q-5-5-12-5-8 0-13 5l-139 139-139-139q-5-5-13-5-7 0-12 5l-76 76q-5 5-5 13 0 8 5 13l139 138-139 139q-5 5-5 13 0 8 5 13l76 75q5 5 12 5 8 0 13-5l139-139 139 139q5 5 13 5 7 0 12-5l76-75q5-5 5-13 0-8-5-13z m-278 0l-101-101q-21-20-21-50 0-30 21-51l46-46q-11-2-24-2h-488q-67 0-108 39t-41 106q0 30 2 58t8 61 15 60 24 55 34 45 48 30 62 11q11 0 22-10 86-68 178-68t178 68q11 10 22 10 15 0 31-4-15-15-22-27t-8-32q0-30 21-51z" horiz-adv-x="1142.9" />

<glyph glyph-name="television" unicode="&#xf26c;" d="M1000 154v535q0 8-5 13t-13 5h-893q-7 0-12-5t-6-13v-535q0-8 6-13t12-5h893q7 0 13 5t5 13z m71 535v-535q0-37-26-63t-63-27h-411v-71h197q8 0 13-5t5-13v-36q0-8-5-13t-13-5h-464q-8 0-13 5t-5 13v36q0 8 5 13t13 5h196v71h-411q-36 0-63 27t-26 63v535q0 37 26 63t63 27h893q37 0 63-27t26-63z" horiz-adv-x="1142.9" />

<glyph glyph-name="user-circle" unicode="&#xf2bd;" d="M850 103q-12 86-49 144t-103 66q-37-42-89-65t-109-23-109 23-89 65q-66-9-103-66t-49-144q59-84 151-133t199-49 199 49 151 133z m-136 390q0 89-62 151t-152 63-151-63-63-151 63-152 151-62 152 62 62 152z m286-143q0-102-40-194t-106-160-159-106-195-40q-102 0-194 40t-160 106-106 160-40 194 40 194 106 160 160 106 194 40 194-40 160-106 106-160 40-194z" horiz-adv-x="1000" />

<glyph glyph-name="user-circle-o" unicode="&#xf2be;" d="M500 850q102 0 194-40t160-106 106-160 40-194q0-101-39-194t-107-159-159-107-195-40-195 40-159 106-106 160-40 194 40 194 106 160 160 106 194 40z m345-754q84 115 84 254 0 87-34 166t-92 137-137 92-166 34-166-34-137-92-91-137-35-166q0-139 84-254 36 183 170 183 73-72 175-72t175 72q134 0 170-183z m-131 361q0 89-62 152t-152 62-151-62-63-152 63-151 151-63 152 63 62 151z" horiz-adv-x="1000" />

<glyph glyph-name="user-o" unicode="&#xf2c0;" d="M670 413q26-8 50-22t50-40 44-65 31-96 12-132q0-86-56-147t-134-61h-477q-78 0-134 61t-56 147q0 73 12 132t31 96 44 65 50 40 50 22q-44 69-44 151 0 58 23 111t61 91 91 61 111 23 110-23 92-61 61-91 22-111q0-82-44-151z m-241 366q-89 0-152-63t-63-152 63-151 152-63 151 63 63 151-63 152-151 63z m238-858q49 0 84 40t35 97q0 134-44 211t-126 80q-81-70-187-70t-188 70q-82-3-126-80t-44-211q0-57 35-97t84-40h477z" horiz-adv-x="857.1" />

<glyph glyph-name="id-card" unicode="&#xf2c2;" d="M500 174q0 30-4 56t-14 50-28 38-45 14q-36-36-88-36t-87 36q-26 0-45-14t-28-38-14-50-4-56q0-31 17-52t43-22h237q25 0 42 22t18 52z m-71 247q0 45-32 76t-76 32-75-32-32-76 32-75 75-32 76 32 32 75z m571-267v35q0 8-5 13t-13 5h-393q-7 0-12-5t-6-13v-35q0-8 6-13t12-5h393q8 0 13 5t5 13z m-214 142v36q0 8-5 13t-13 5h-179q-7 0-12-5t-6-13v-36q0-7 6-12t12-5h179q8 0 13 5t5 12z m214 0v36q0 8-5 13t-13 5h-107q-8 0-13-5t-5-13v-36q0-7 5-12t13-5h107q8 0 13 5t5 12z m0 143v36q0 8-5 13t-13 5h-393q-7 0-12-5t-6-13v-36q0-7 6-12t12-6h393q8 0 13 6t5 12z m-929 197h1000v53q0 8-5 13t-12 5h-965q-7 0-12-5t-6-13v-53z m1072 53v-678q0-37-26-63t-63-27h-965q-36 0-63 27t-26 63v678q0 37 26 63t63 27h965q36 0 63-27t26-63z" horiz-adv-x="1142.9" />

<glyph glyph-name="user-profile" unicode="&#xf2c3;" d="M500 174q0-31-18-52t-42-22h-237q-25 0-43 22t-17 52q0 30 4 56t14 50 28 38 45 14q36-36 87-36t88 36q26 0 45-14t28-38 14-50 4-56z m-71 247q0-44-32-75t-76-32-75 32-32 75 32 76 75 32 76-32 32-76z m571-232v-35q0-8-5-13t-13-5h-393q-7 0-12 5t-6 13v35q0 8 6 13t12 5h393q8 0 13-5t5-13z m-214 143v-36q0-7-5-12t-13-5h-179q-7 0-12 5t-6 12v36q0 8 6 13t12 5h179q8 0 13-5t5-13z m214 0v-36q0-7-5-12t-13-5h-107q-8 0-13 5t-5 12v36q0 8 5 13t13 5h107q8 0 13-5t5-13z m0 143v-36q0-7-5-12t-13-6h-393q-7 0-12 6t-6 12v36q0 8 6 13t12 5h393q8 0 13-5t5-13z m71-464v625h-1000v-625q0-7 6-13t12-5h965q7 0 12 5t5 13z m72 678v-678q0-37-26-63t-63-27h-965q-36 0-63 27t-26 63v678q0 37 26 63t63 27h965q36 0 63-27t26-63z" horiz-adv-x="1142.9" />
</font>
</defs>
</svg>
